<?xml version="1.0" encoding="UTF-8"?>
<svg version="1.1" xmlns="http://www.w3.org/2000/svg" width="135" height="145">
<path d="M0 0 C12.7214559 9.83897455 21.29773077 23.75704524 23.82421875 39.73828125 C24.09800041 42.84937654 24.15918192 45.9287215 24.13671875 49.05078125 C24.1310791 49.88037354 24.12543945 50.70996582 24.11962891 51.56469727 C23.79391587 68.13897606 17.03540428 82.11366729 5.6484375 94.01171875 C-7.59033951 106.70881094 -23.42839954 113.19740993 -41.80859375 112.9453125 C-61.07425446 111.76076492 -75.4881926 103.72067017 -88.078125 89.60546875 C-98.68278075 76.27544345 -102.30656715 59.66915055 -100.84375 42.94140625 C-98.09685166 26.14102154 -89.54010074 11.30778884 -75.81640625 1.17578125 C-52.80549564 -14.81376075 -23.28714383 -16.58457106 0 0 Z " fill="#FDDC1A" transform="translate(104.17578125,21.26171875)"/>
<path d="M0 0 C0.66 0 1.32 0 2 0 C2 0.99 2 1.98 2 3 C4.31 3 6.62 3 9 3 C9 2.34 9 1.68 9 1 C9.66 1 10.32 1 11 1 C11.495 2.98 11.495 2.98 12 5 C13.65 4.01 15.3 3.02 17 2 C17.061875 2.61875 17.12375 3.2375 17.1875 3.875 C17.83093315 6.25120663 17.83093315 6.25120663 20.4375 7.3125 C22.96444412 8.29432364 22.96444412 8.29432364 25 7 C25 8.32 25 9.64 25 11 C27.97 10.505 27.97 10.505 31 10 C30.95875 10.78375 30.9175 11.5675 30.875 12.375 C30.71271266 15.16116119 30.71271266 15.16116119 33 17 C34.32 17 35.64 17 37 17 C36.9071875 18.175625 36.9071875 18.175625 36.8125 19.375 C36.874375 20.24125 36.93625 21.1075 37 22 C37.99 22.66 38.98 23.32 40 24 C40.2165625 25.485 40.2165625 25.485 40.4375 27 C40.623125 27.99 40.80875 28.98 41 30 C42.95163118 31.43637698 42.95163118 31.43637698 45 32 C44.34 33.32 43.68 34.64 43 36 C43.66 36.99 44.32 37.98 45 39 C44.34 39 43.68 39 43 39 C43 41.64 43 44.28 43 47 C43.66 47.33 44.32 47.66 45 48 C43.515 48.495 43.515 48.495 42 49 C42.99 51.475 42.99 51.475 44 54 C43.01 54 42.02 54 41 54 C39.95785309 58.61507774 39.95785309 58.61507774 41 63 C39.515 63.495 39.515 63.495 38 64 C37.87625 64.61875 37.7525 65.2375 37.625 65.875 C36.72126904 68.94768525 34.67139915 69.39716051 32 71 C31.12177688 73.08533633 31.12177688 73.08533633 31 75 C29.68 75 28.36 75 27 75 C27 76.98 27 78.96 27 81 C26.34 80.67 25.68 80.34 25 80 C25 79.34 25 78.68 25 78 C20.29157376 80.11326526 20.29157376 80.11326526 17 84 C15.68 84 14.36 84 13 84 C12.34 84.99 11.68 85.98 11 87 C11 86.01 11 85.02 11 84 C8.36 84 5.72 84 3 84 C2.505 85.485 2.505 85.485 2 87 C1.67 86.01 1.34 85.02 1 84 C-1.46800047 85.15173355 -3.04783565 86.04783565 -5 88 C-5 86.35 -5 84.7 -5 83 C-7.31 82.67 -9.62 82.34 -12 82 C-12.33 82.99 -12.66 83.98 -13 85 C-13.66 83.68 -14.32 82.36 -15 81 C-17.475 81.495 -17.475 81.495 -20 82 C-20.12375 81.195625 -20.2475 80.39125 -20.375 79.5625 C-20.58125 78.716875 -20.7875 77.87125 -21 77 C-21.66 76.67 -22.32 76.34 -23 76 C-23 75.34 -23 74.68 -23 74 C-24.98 74.99 -24.98 74.99 -27 76 C-27 74.35 -27 72.7 -27 71 C-29.97 71.495 -29.97 71.495 -33 72 C-32.62875 71.236875 -32.2575 70.47375 -31.875 69.6875 C-31.58625 68.800625 -31.2975 67.91375 -31 67 C-32.72226496 63.75150023 -32.72226496 63.75150023 -36 63 C-35.67 61.35 -35.34 59.7 -35 58 C-36.32 57.34 -37.64 56.68 -39 56 C-38.34 56 -37.68 56 -37 56 C-37.26393501 52.56769552 -37.26393501 52.56769552 -38 49 C-38.99 48.34 -39.98 47.68 -41 47 C-39.515 46.505 -39.515 46.505 -38 46 C-38 45.01 -38 44.02 -38 43 C-38.99 42.67 -39.98 42.34 -41 42 C-39.515 41.505 -39.515 41.505 -38 41 C-37.67 38.36 -37.34 35.72 -37 33 C-37.66 32.67 -38.32 32.34 -39 32 C-38.01 31.67 -37.02 31.34 -36 31 C-36.66 29.02 -37.32 27.04 -38 25 C-36.68 25 -35.36 25 -34 25 C-33.7525 24.030625 -33.505 23.06125 -33.25 22.0625 C-32.8375 21.051875 -32.425 20.04125 -32 19 C-29.875 18.125 -29.875 18.125 -28 18 C-28.33 15.69 -28.66 13.38 -29 11 C-26.525 11.99 -26.525 11.99 -24 13 C-22.43750191 11.68798827 -22.43750191 11.68798827 -21 10 C-21 9.01 -21 8.02 -21 7 C-19.35 7 -17.7 7 -16 7 C-15.34 5.68 -14.68 4.36 -14 3 C-13.67 3.99 -13.34 4.98 -13 6 C-9.535 5.505 -9.535 5.505 -6 5 C-5.67 3.68 -5.34 2.36 -5 1 C-3.68 1.33 -2.36 1.66 -1 2 C-0.67 1.34 -0.34 0.68 0 0 Z " fill="#FCF8F6" transform="translate(65,27)"/>
<path d="M0 0 C12.7214559 9.83897455 21.29773077 23.75704524 23.82421875 39.73828125 C24.09800041 42.84937654 24.15918192 45.9287215 24.13671875 49.05078125 C24.1310791 49.88037354 24.12543945 50.70996582 24.11962891 51.56469727 C23.79391587 68.13897606 17.03540428 82.11366729 5.6484375 94.01171875 C-7.59033951 106.70881094 -23.42839954 113.19740993 -41.80859375 112.9453125 C-61.07425446 111.76076492 -75.4881926 103.72067017 -88.078125 89.60546875 C-98.68278075 76.27544345 -102.30656715 59.66915055 -100.84375 42.94140625 C-98.09685166 26.14102154 -89.54010074 11.30778884 -75.81640625 1.17578125 C-52.80549564 -14.81376075 -23.28714383 -16.58457106 0 0 Z M-60.17578125 -3.26171875 C-61.17480469 -2.77574219 -62.17382812 -2.28976563 -63.203125 -1.7890625 C-77.21414754 5.68466074 -86.88081903 17.48479153 -91.87109375 32.5 C-93.39271022 37.87620884 -93.6755483 42.98597039 -93.61328125 48.55078125 C-93.60498291 49.51419434 -93.59668457 50.47760742 -93.58813477 51.47021484 C-93.22839958 66.70199163 -87.52817369 79.32061867 -77.17578125 90.48828125 C-65.26117223 101.79817075 -50.26282625 107.48936135 -33.828125 107.08984375 C-18.31793451 105.59688424 -3.14562374 99.25266707 7.12011719 87.21923828 C17.34595032 74.20490217 22.37946037 59.37346058 20.82421875 42.73828125 C17.95828938 25.62851128 10.42300914 12.30820165 -3.71875 1.859375 C-9.51099331 -1.81487791 -15.67288923 -4.15179538 -22.17578125 -6.26171875 C-23.16578125 -6.59171875 -24.15578125 -6.92171875 -25.17578125 -7.26171875 C-36.94489543 -8.18286825 -49.43145616 -8.6578999 -60.17578125 -3.26171875 Z " fill="#BF2531" transform="translate(104.17578125,21.26171875)"/>
<path d="M0 0 C2.9375 1.1875 2.9375 1.1875 3.9375 3.1875 C4.55625 3.001875 5.175 2.81625 5.8125 2.625 C7.9375 2.1875 7.9375 2.1875 9.9375 3.1875 C10.2675 2.5275 10.5975 1.8675 10.9375 1.1875 C16.08492451 -0.26720693 16.08492451 -0.26720693 18.8125 1.1875 C20.49040731 4.17044634 20.1271396 6.83720039 19.9375 10.1875 C20.5975 8.8675 21.2575 7.5475 21.9375 6.1875 C22.9275 6.5175 23.9175 6.8475 24.9375 7.1875 C24.9375 7.8475 24.9375 8.5075 24.9375 9.1875 C25.700625 8.836875 26.46375 8.48625 27.25 8.125 C29.9375 7.1875 29.9375 7.1875 32.9375 8.1875 C35.0894437 11.41541555 35.13836443 12.47150809 34.9375 16.1875 C35.9275 16.1875 36.9175 16.1875 37.9375 16.1875 C37.9375 17.1775 37.9375 18.1675 37.9375 19.1875 C38.700625 19.125625 39.46375 19.06375 40.25 19 C42.9375 19.1875 42.9375 19.1875 44.75 20.375 C46.34871458 22.81514331 46.29590349 24.32027207 45.9375 27.1875 C44.9475 28.6725 44.9475 28.6725 43.9375 30.1875 C44.9275 30.1875 45.9175 30.1875 46.9375 30.1875 C46.9375 31.1775 46.9375 32.1675 46.9375 33.1875 C47.576875 33.47625 48.21625 33.765 48.875 34.0625 C50.9375 35.1875 50.9375 35.1875 51.9375 37.1875 C52.1875 40.1875 52.1875 40.1875 51.9375 43.1875 C50.9475 43.8475 49.9575 44.5075 48.9375 45.1875 C49.123125 45.991875 49.30875 46.79625 49.5 47.625 C49.7165625 48.8934375 49.7165625 48.8934375 49.9375 50.1875 C49.6075 50.5175 49.2775 50.8475 48.9375 51.1875 C50.4225 51.6825 50.4225 51.6825 51.9375 52.1875 C52.71091204 54.97178335 53.11324966 56.66025102 52.1875 59.4375 C50.9375 61.1875 50.9375 61.1875 47.9375 62.1875 C47.5653958 63.51053717 47.23119827 64.84487935 46.9375 66.1875 C45.9475 66.6825 45.9475 66.6825 44.9375 67.1875 C45.5975 67.8475 46.2575 68.5075 46.9375 69.1875 C47.30237512 72.03352594 47.33949375 73.5739306 45.75 76 C43.37767475 77.55428206 41.71708655 77.41287188 38.9375 77.1875 C38.4425 79.1675 38.4425 79.1675 37.9375 81.1875 C37.2775 81.1875 36.6175 81.1875 35.9375 81.1875 C35.6075 83.4975 35.2775 85.8075 34.9375 88.1875 C31.5625 88.8125 31.5625 88.8125 27.9375 89.1875 C27.2775 88.5275 26.6175 87.8675 25.9375 87.1875 C23.35395782 87.02062552 23.35395782 87.02062552 20.9375 87.1875 C22.5875 87.5175 24.2375 87.8475 25.9375 88.1875 C25.4425 89.6725 25.4425 89.6725 24.9375 91.1875 C23.9475 91.1875 22.9575 91.1875 21.9375 91.1875 C21.9375 92.1775 21.9375 93.1675 21.9375 94.1875 C18.5022952 96.47763653 16.952169 96.36592973 12.9375 96.1875 C12.6075 95.1975 12.2775 94.2075 11.9375 93.1875 C11.2775 93.1875 10.6175 93.1875 9.9375 93.1875 C9.9375 93.8475 9.9375 94.5075 9.9375 95.1875 C9.15375 95.125625 8.37 95.06375 7.5625 95 C6.263125 95.0928125 6.263125 95.0928125 4.9375 95.1875 C4.2775 96.1775 3.6175 97.1675 2.9375 98.1875 C0.6275 97.8575 -1.6825 97.5275 -4.0625 97.1875 C-4.7225 95.2075 -5.3825 93.2275 -6.0625 91.1875 C-6.5575 92.6725 -6.5575 92.6725 -7.0625 94.1875 C-9.23124252 93.68146008 -11.06217627 93.18766187 -13.0625 92.1875 C-13.0625 92.8475 -13.0625 93.5075 -13.0625 94.1875 C-15.9375 94.375 -15.9375 94.375 -19.0625 94.1875 C-21.4919516 90.5433226 -21.22429575 88.47508728 -21.0625 84.1875 C-23.85073655 83.1548198 -24.9302274 83.14240707 -27.8125 84.125 C-28.555 84.475625 -29.2975 84.82625 -30.0625 85.1875 C-33.99940852 81.86573344 -33.99940852 81.86573344 -34.3125 78.5 C-34.23 77.736875 -34.1475 76.97375 -34.0625 76.1875 C-34.0625 75.8575 -34.0625 75.5275 -34.0625 75.1875 C-34.7225 75.1875 -35.3825 75.1875 -36.0625 75.1875 C-36.0625 73.8675 -36.0625 72.5475 -36.0625 71.1875 C-37.238125 71.001875 -37.238125 71.001875 -38.4375 70.8125 C-41.0625 70.1875 -41.0625 70.1875 -43.0625 68.1875 C-43.3125 65.6875 -43.3125 65.6875 -43.0625 63.1875 C-42.4025 62.5275 -41.7425 61.8675 -41.0625 61.1875 C-41.16415608 57.42622509 -42.05329034 56.19760816 -44.625 53.375 C-45.429375 52.653125 -46.23375 51.93125 -47.0625 51.1875 C-45.4375 45.4375 -45.4375 45.4375 -42.0625 43.1875 C-42.0625 41.8675 -42.0625 40.5475 -42.0625 39.1875 C-41.5675 38.6925 -41.5675 38.6925 -41.0625 38.1875 C-42.0525 37.5275 -43.0425 36.8675 -44.0625 36.1875 C-44.73182271 30.05204183 -44.73182271 30.05204183 -42.5625 27.25 C-42.0675 26.899375 -41.5725 26.54875 -41.0625 26.1875 C-41.0625 26.8475 -41.0625 27.5075 -41.0625 28.1875 C-39.7425 27.8575 -38.4225 27.5275 -37.0625 27.1875 C-37.03671875 26.58421875 -37.0109375 25.9809375 -36.984375 25.359375 C-36.71939802 21.62560849 -36.43825457 18.8450705 -34.5625 15.5625 C-30.71520595 13.44648827 -27.25129186 14.36406228 -23.0625 15.1875 C-21.89030466 12.23011196 -21.89030466 12.23011196 -22.125 9.125 C-22.0625 6.1875 -22.0625 6.1875 -20.0625 4.1875 C-16.4375 4.5625 -16.4375 4.5625 -13.0625 5.1875 C-12.5675 6.6725 -12.5675 6.6725 -12.0625 8.1875 C-10.4125 7.8575 -8.7625 7.5275 -7.0625 7.1875 C-6.77375 6.053125 -6.485 4.91875 -6.1875 3.75 C-5.81625 2.574375 -5.445 1.39875 -5.0625 0.1875 C-3.0625 -0.8125 -3.0625 -0.8125 0 0 Z M0.9375 5.1875 C0.6075 5.8475 0.2775 6.5075 -0.0625 7.1875 C-2.5375 6.6925 -2.5375 6.6925 -5.0625 6.1875 C-5.0625 7.5075 -5.0625 8.8275 -5.0625 10.1875 C-7.3725 10.5175 -9.6825 10.8475 -12.0625 11.1875 C-12.3925 10.1975 -12.7225 9.2075 -13.0625 8.1875 C-13.7225 9.5075 -14.3825 10.8275 -15.0625 12.1875 C-16.7125 12.1875 -18.3625 12.1875 -20.0625 12.1875 C-20.145 12.80625 -20.2275 13.425 -20.3125 14.0625 C-21.0625 16.1875 -21.0625 16.1875 -23.125 17.4375 C-23.764375 17.685 -24.40375 17.9325 -25.0625 18.1875 C-26.0525 17.5275 -27.0425 16.8675 -28.0625 16.1875 C-27.7325 18.4975 -27.4025 20.8075 -27.0625 23.1875 C-27.68125 23.22875 -28.3 23.27 -28.9375 23.3125 C-29.63875 23.60125 -30.34 23.89 -31.0625 24.1875 C-31.3925 25.1775 -31.7225 26.1675 -32.0625 27.1875 C-32.3925 28.1775 -32.7225 29.1675 -33.0625 30.1875 C-35.1875 31.0625 -35.1875 31.0625 -37.0625 31.1875 C-36.4025 32.8375 -35.7425 34.4875 -35.0625 36.1875 C-36.0525 36.5175 -37.0425 36.8475 -38.0625 37.1875 C-37.4025 37.5175 -36.7425 37.8475 -36.0625 38.1875 C-36.3925 40.8275 -36.7225 43.4675 -37.0625 46.1875 C-38.5475 46.6825 -38.5475 46.6825 -40.0625 47.1875 C-39.0725 47.5175 -38.0825 47.8475 -37.0625 48.1875 C-37.0625 49.1775 -37.0625 50.1675 -37.0625 51.1875 C-38.5475 51.6825 -38.5475 51.6825 -40.0625 52.1875 C-39.0725 52.8475 -38.0825 53.5075 -37.0625 54.1875 C-36.375 57.8125 -36.375 57.8125 -36.0625 61.1875 C-37.0525 61.6825 -37.0525 61.6825 -38.0625 62.1875 C-36.7425 62.5175 -35.4225 62.8475 -34.0625 63.1875 C-34.5575 65.6625 -34.5575 65.6625 -35.0625 68.1875 C-34.0725 68.5175 -33.0825 68.8475 -32.0625 69.1875 C-30.75 71.5625 -30.75 71.5625 -30.0625 74.1875 C-30.7225 75.1775 -31.3825 76.1675 -32.0625 77.1875 C-29.0925 76.6925 -29.0925 76.6925 -26.0625 76.1875 C-26.0625 77.8375 -26.0625 79.4875 -26.0625 81.1875 C-24.0825 80.1975 -24.0825 80.1975 -22.0625 79.1875 C-22.0625 79.8475 -22.0625 80.5075 -22.0625 81.1875 C-20.5775 82.1775 -20.5775 82.1775 -19.0625 83.1875 C-18.375 85.3125 -18.375 85.3125 -18.0625 87.1875 C-16.0825 86.6925 -16.0825 86.6925 -14.0625 86.1875 C-13.4025 87.5075 -12.7425 88.8275 -12.0625 90.1875 C-11.5675 88.7025 -11.5675 88.7025 -11.0625 87.1875 C-8.7525 87.5175 -6.4425 87.8475 -4.0625 88.1875 C-4.0625 89.8375 -4.0625 91.4875 -4.0625 93.1875 C-3.629375 92.713125 -3.19625 92.23875 -2.75 91.75 C-1.0625 90.1875 -1.0625 90.1875 1.9375 89.1875 C2.2675 90.1775 2.5975 91.1675 2.9375 92.1875 C3.4325 90.7025 3.4325 90.7025 3.9375 89.1875 C6.5775 89.1875 9.2175 89.1875 11.9375 89.1875 C12.2675 90.1775 12.5975 91.1675 12.9375 92.1875 C13.5975 90.8675 14.2575 89.5475 14.9375 88.1875 C16.2575 88.5175 17.5775 88.8475 18.9375 89.1875 C19.4325 87.7025 19.4325 87.7025 19.9375 86.1875 C23 84.5 23 84.5 25.9375 83.1875 C26.2675 84.1775 26.5975 85.1675 26.9375 86.1875 C27.2675 86.1875 27.5975 86.1875 27.9375 86.1875 C27.9375 84.2075 27.9375 82.2275 27.9375 80.1875 C29.2575 80.1875 30.5775 80.1875 31.9375 80.1875 C32.30875 79.011875 32.30875 79.011875 32.6875 77.8125 C34.14530864 74.75110186 35.01743473 74.60043481 37.9375 73.1875 C38.3096042 71.86446283 38.64380173 70.53012065 38.9375 69.1875 C39.9275 68.5275 40.9175 67.8675 41.9375 67.1875 C41.751875 66.61 41.56625 66.0325 41.375 65.4375 C40.88690683 62.92730653 40.96197381 61.54502163 41.9375 59.1875 C42.9275 58.8575 43.9175 58.5275 44.9375 58.1875 C43.9475 56.2075 43.9475 56.2075 42.9375 54.1875 C43.9275 53.8575 44.9175 53.5275 45.9375 53.1875 C45.2775 52.8575 44.6175 52.5275 43.9375 52.1875 C43.9375 49.5475 43.9375 46.9075 43.9375 44.1875 C44.5975 43.8575 45.2575 43.5275 45.9375 43.1875 C44.9475 41.2075 44.9475 41.2075 43.9375 39.1875 C44.5975 38.1975 45.2575 37.2075 45.9375 36.1875 C44.6175 35.8575 43.2975 35.5275 41.9375 35.1875 C41.4425 31.7225 41.4425 31.7225 40.9375 28.1875 C39.4525 27.6925 39.4525 27.6925 37.9375 27.1875 C37.9375 25.5375 37.9375 23.8875 37.9375 22.1875 C36.2875 21.8575 34.6375 21.5275 32.9375 21.1875 C32.7209375 20.259375 32.7209375 20.259375 32.5 19.3125 C32.00597775 17.15491678 32.00597775 17.15491678 30.9375 15.1875 C29.2875 15.5175 27.6375 15.8475 25.9375 16.1875 C25.4425 14.2075 25.4425 14.2075 24.9375 12.1875 C24.2775 12.5175 23.6175 12.8475 22.9375 13.1875 C20.22314404 12.25444014 19.15706837 11.56076623 17.6875 9.0625 C17.44 8.44375 17.1925 7.825 16.9375 7.1875 C15.6175 8.1775 14.2975 9.1675 12.9375 10.1875 C12.4425 8.2075 12.4425 8.2075 11.9375 6.1875 C11.2775 6.1875 10.6175 6.1875 9.9375 6.1875 C9.9375 6.8475 9.9375 7.5075 9.9375 8.1875 C7.6275 8.1875 5.3175 8.1875 2.9375 8.1875 C2.9375 7.1975 2.9375 6.2075 2.9375 5.1875 C2.2775 5.1875 1.6175 5.1875 0.9375 5.1875 Z " fill="#C02231" transform="translate(64.0625,21.8125)"/>
<path d="M0 0 C0.66 0 1.32 0 2 0 C1.7834375 1.2684375 1.7834375 1.2684375 1.5625 2.5625 C0.9941203 6.03593149 0.48797607 9.51445662 0 13 C0.99 13 1.98 13 3 13 C3.185625 11.63875 3.185625 11.63875 3.375 10.25 C3.92109677 7.41029677 4.57263803 5.47409409 6 3 C6.33 3.99 6.66 4.98 7 6 C8.49985609 7.66710346 8.49985609 7.66710346 10 9 C9.01 9.495 9.01 9.495 8 10 C8 10.66 8 11.32 8 12 C8.66 12.66 9.32 13.32 10 14 C8.7934375 14.3403125 8.7934375 14.3403125 7.5625 14.6875 C4.77795145 15.74514268 4.77795145 15.74514268 4.125 18.4375 C3.83910476 21.12077174 3.83910476 21.12077174 5 24 C6.98 24.33 8.96 24.66 11 25 C10.01 25.33 9.02 25.66 8 26 C8 27.32 8 28.64 8 30 C8.66 30.33 9.32 30.66 10 31 C9.34 31.66 8.68 32.32 8 33 C7.66666667 35.5 7.66666667 35.5 8 38 C10.1385485 40.1385485 11.13275314 40.42655063 14 41 C14 42.32 14 43.64 14 45 C15.32 44.01 16.64 43.02 18 42 C17.89300781 42.61488281 17.78601563 43.22976562 17.67578125 43.86328125 C17.55589844 44.67152344 17.43601562 45.47976562 17.3125 46.3125 C17.18488281 47.11300781 17.05726562 47.91351563 16.92578125 48.73828125 C16.77257193 51.09649679 16.77257193 51.09649679 18.48046875 52.79296875 C18.98191406 53.19128906 19.48335937 53.58960938 20 54 C20.7425 53.649375 21.485 53.29875 22.25 52.9375 C25.12647354 51.95688402 26.26969007 51.7323561 29 53 C29.98651887 55.95955661 30 57.92864836 30 61 C30.33 61.99 30.66 62.98 31 64 C32.98 64 34.96 64 37 64 C37 63.34 37 62.68 37 62 C38.98 62.66 40.96 63.32 43 64 C43.33 62.68 43.66 61.36 44 60 C44.28875 60.94875 44.5775 61.8975 44.875 62.875 C45.76825109 66.05211578 45.76825109 66.05211578 48 68 C46.329375 67.7834375 46.329375 67.7834375 44.625 67.5625 C40.45856757 67.03425589 36.28537019 66.64393302 32.1015625 66.28125 C30 66 30 66 28 65 C28 64.34 28 63.68 28 63 C27.1646875 62.814375 27.1646875 62.814375 26.3125 62.625 C23.77885636 61.94023145 21.42078968 61.00866237 19 60 C19.33 61.32 19.66 62.64 20 64 C21.98 64.33 23.96 64.66 26 65 C26 65.66 26 66.32 26 67 C26.99 67 27.98 67 29 67 C29 67.66 29 68.32 29 69 C30.32 69.33 31.64 69.66 33 70 C30 71 30 71 27.6875 70.171875 C13.28808536 62.55358004 3.3097469 50.33926881 -2 35 C-3.30789442 29.32679564 -3.30662319 23.54683441 -3.375 17.75 C-3.38917969 16.80253906 -3.40335938 15.85507813 -3.41796875 14.87890625 C-3.37756556 9.14973388 -2.65800395 5.0909917 0 0 Z " fill="#FDDD1B" transform="translate(14,52)"/>
<path d="M0 0 C1.65 0 3.3 0 5 0 C5 4.95 5 9.9 5 15 C6.98 14.67 8.96 14.34 11 14 C12.00217064 10.41672247 12.00217064 10.41672247 11 7 C11.99 6.67 12.98 6.34 14 6 C15.35827971 4.35360035 16.69254251 2.68704193 18 1 C20.64458379 -0.32229189 22.67761301 -0.09677194 25.625 -0.0625 C27.12933594 -0.04896484 27.12933594 -0.04896484 28.6640625 -0.03515625 C29.43492188 -0.02355469 30.20578125 -0.01195312 31 0 C30.67 1.32 30.34 2.64 30 4 C28.906875 3.95875 27.81375 3.9175 26.6875 3.875 C22.91107771 3.67925334 22.91107771 3.67925334 20 6 C19.72971626 9.71640139 19.819067 12.457201 21 16 C22.98 16 24.96 16 27 16 C27 14.68 27 13.36 27 12 C26.01 12 25.02 12 24 12 C24 10.68 24 9.36 24 8 C26.64 8 29.28 8 32 8 C32 11.63 32 15.26 32 19 C29.56612247 20.21693876 27.58161154 20.31959896 24.875 20.5625 C23.96492188 20.64628906 23.05484375 20.73007813 22.1171875 20.81640625 C21.41851562 20.87699219 20.71984375 20.93757813 20 21 C20.144375 21.60328125 20.28875 22.2065625 20.4375 22.828125 C20.623125 23.62734375 20.80875 24.4265625 21 25.25 C21.185625 26.03890625 21.37125 26.8278125 21.5625 27.640625 C22 30 22 30 22 34 C20.515 34.495 20.515 34.495 19 35 C18.67 34.34 18.34 33.68 18 33 C17.10869587 35.6739124 16.52268466 38.23723823 16 41 C13.0625 39.8125 13.0625 39.8125 10 38 C9.0625 35.4375 9.0625 35.4375 9 33 C9.33 32.34 9.66 31.68 10 31 C4.63909407 30.46326107 4.63909407 30.46326107 0 32.5 C-0.33 32.995 -0.66 33.49 -1 34 C-0.67 32.35 -0.34 30.7 0 29 C1.32 29 2.64 29 4 29 C4.66 27.68 5.32 26.36 6 25 C5.195625 24.195625 4.39125 23.39125 3.5625 22.5625 C0 19 0 19 -0.11352539 17.14233398 C-0.10828857 16.35157471 -0.10305176 15.56081543 -0.09765625 14.74609375 C-0.09443359 13.89208984 -0.09121094 13.03808594 -0.08789062 12.15820312 C-0.07951172 11.26037109 -0.07113281 10.36253906 -0.0625 9.4375 C-0.05798828 8.53580078 -0.05347656 7.63410156 -0.04882812 6.70507812 C-0.03700225 4.46998686 -0.0205222 2.23502563 0 0 Z " fill="#FFF0E2" transform="translate(68,62)"/>
<path d="M0 0 C0.66 0.33 1.32 0.66 2 1 C1.19175781 1.56847656 0.38351563 2.13695312 -0.44921875 2.72265625 C-6.35562402 6.99037248 -11.06548227 10.78092359 -15 17 C-15.99 17.66 -16.98 18.32 -18 19 C-18.93529384 20.74047661 -18.93529384 20.74047661 -19.5703125 22.7734375 C-19.95509766 23.8871875 -19.95509766 23.8871875 -20.34765625 25.0234375 C-20.73244141 26.18746094 -20.73244141 26.18746094 -21.125 27.375 C-21.38925781 28.14328125 -21.65351563 28.9115625 -21.92578125 29.703125 C-27.08242418 44.83276769 -27.07618448 62.54075427 -20.55859375 77.25390625 C-13.55711129 91.27311591 -3.11014694 101.74568536 11.6875 107.375 C13.45069804 107.94102664 15.22127995 108.48482194 17 109 C17.70125 109.22429687 18.4025 109.44859375 19.125 109.6796875 C31.39485974 113.07248963 47.10551122 112.12125284 58.3671875 106.2421875 C60.44833656 105.00946851 62.50864345 103.74038233 64.5390625 102.42578125 C67 101 67 101 70 101 C55.33048208 112.26177592 39.78200679 116.76357999 21.3984375 114.5703125 C4.32278361 111.70669352 -8.77041193 103.34600256 -19.4375 89.9375 C-29.33962317 75.6085453 -32.86385823 58.63346841 -30.0625 41.5 C-26.28876961 25.44049265 -17.57061164 11.55186793 -3.8125 2.25 C-2.55243563 1.48204483 -1.28587844 0.72390193 0 0 Z " fill="#C0B9BA" transform="translate(34,19)"/>
<path d="M0 0 C-0.66 1.65 -1.32 3.3 -2 5 C-3.10859375 5.03738281 -4.2171875 5.07476563 -5.359375 5.11328125 C-6.82294974 5.17895448 -8.28648991 5.24540135 -9.75 5.3125 C-10.47960937 5.33505859 -11.20921875 5.35761719 -11.9609375 5.38085938 C-16.3186494 5.59874497 -18.75370783 6.09617382 -22 9 C-23.54213922 9.75163088 -25.10569206 10.46090212 -26.6875 11.125 C-29.56883031 12.22092785 -29.56883031 12.22092785 -32 14 C-31.96777152 16.03039402 -31.93188381 18.06128092 -31.83984375 20.08984375 C-32 22 -32 22 -34 24 C-36.32062646 23.85468563 -38.52391362 23.42141312 -40.80859375 22.99609375 C-43.07611777 22.78316848 -43.07611777 22.78316848 -44.78125 24.3203125 C-46.43904637 26.60509596 -46.06775361 28.22210214 -46 31 C-47 33.3125 -47 33.3125 -48 35 C-47.01 35.33 -46.02 35.66 -45 36 C-47.64 36 -50.28 36 -53 36 C-53.19335938 36.58007812 -53.38671875 37.16015625 -53.5859375 37.7578125 C-55.05729167 42.171875 -56.52864583 46.5859375 -58 51 C-58.99 51 -59.98 51 -61 51 C-61.19294408 46.17639811 -60.75747614 42.50353262 -59 38 C-60.485 38.495 -60.485 38.495 -62 39 C-57.41018361 24.08309672 -47.75519616 12.9539779 -34.16259766 5.56347656 C-22.67656839 -0.3766099 -12.69768209 -0.35198913 0 0 Z " fill="#EACE13" transform="translate(75,14)"/>
<path d="M0 0 C10.57786574 0.68986081 21.78217436 5.47936763 29.70703125 12.515625 C31.41839755 14.48033555 32.14279872 16.56027329 33 19 C32.34 19 31.68 19 31 19 C31.433125 20.093125 31.86625 21.18625 32.3125 22.3125 C32.55613281 22.92738281 32.79976562 23.54226562 33.05078125 24.17578125 C33.89766966 26.0621144 33.89766966 26.0621144 35.46484375 27.32421875 C37.70157213 29.76583828 38.2995431 32.35072491 39.25 35.5 C39.60578125 36.6446875 39.9615625 37.789375 40.328125 38.96875 C41 42 41 42 40 45 C39.67 44.34 39.34 43.68 39 43 C36.98330173 41.86649466 36.98330173 41.86649466 35 41 C35.33 40.01 35.66 39.02 36 38 C34.68 38.33 33.36 38.66 32 39 C32.495 38.1646875 32.495 38.1646875 33 37.3125 C34.15249005 34.64736676 34.30274405 32.87606851 34 30 C31.64046906 27.64046906 30.22104383 27.50858587 27 27 C27 26.01 27 25.02 27 24 C25.68 24.33 24.36 24.66 23 25 C23.020625 24.071875 23.04125 23.14375 23.0625 22.1875 C23.15769604 18.97713989 23.15769604 18.97713989 22 16 C18.95613276 15.91773332 16.92824652 16.02391783 14 17 C13.505 16.01 13.505 16.01 13 15 C12.34 15 11.68 15 11 15 C11 15.99 11 16.98 11 18 C10.34 18 9.68 18 9 18 C8.9175 16.88625 8.835 15.7725 8.75 14.625 C8.40527236 11.00581594 8.40527236 11.00581594 6.1875 9.5625 C3.73078202 8.83397264 3.73078202 8.83397264 0 9 C-0.66 10.32 -1.32 11.64 -2 13 C-2.33 12.34 -2.66 11.68 -3 11 C-3.99 10.67 -4.98 10.34 -6 10 C-6.33 10.99 -6.66 11.98 -7 13 C-7.226875 12.360625 -7.45375 11.72125 -7.6875 11.0625 C-8.8477167 8.75631253 -8.8477167 8.75631253 -11.5 8.1875 C-13.99790956 7.78526509 -13.99790956 7.78526509 -16 9 C-16.73075648 11.3140622 -17.40138258 13.64828869 -18 16 C-20.3125 16.1875 -20.3125 16.1875 -23 16 C-24.5625 14.625 -24.5625 14.625 -26 13 C-27.3187302 12.30489362 -28.65105091 11.63447503 -30 11 C-29.30132812 10.74605469 -28.60265625 10.49210937 -27.8828125 10.23046875 C-26.97273438 9.88628906 -26.06265625 9.54210938 -25.125 9.1875 C-24.22007813 8.85105469 -23.31515625 8.51460937 -22.3828125 8.16796875 C-19.70574151 7.10350976 -19.70574151 7.10350976 -18 4 C-17.34 4 -16.68 4 -16 4 C-16 4.66 -16 5.32 -16 6 C-15.34 5.67 -14.68 5.34 -14 5 C-11.95944995 4.92934383 -9.91665743 4.91578024 -7.875 4.9375 C-6.77929688 4.94652344 -5.68359375 4.95554687 -4.5546875 4.96484375 C-3.71164063 4.97644531 -2.86859375 4.98804688 -2 5 C-1.855625 4.360625 -1.71125 3.72125 -1.5625 3.0625 C-1 1 -1 1 0 0 Z " fill="#EFD21F" transform="translate(75,14)"/>
<path d="M0 0 C13.70675031 9.76163398 23.18643539 22.95739661 26.62719727 39.6418457 C27.24303541 43.53731437 27.34083449 47.37441008 27.3125 51.3125 C27.30686035 52.14209229 27.3012207 52.97168457 27.29541016 53.82641602 C26.95669736 71.06220212 19.59063031 85.42116376 7.5625 97.5625 C6.716875 98.366875 5.87125 99.17125 5 100 C4.01 99.505 4.01 99.505 3 99 C3.61875 98.2265625 3.61875 98.2265625 4.25 97.4375 C5.95698474 95.05991411 7.34834014 92.5995326 8.765625 90.04296875 C10.21187083 87.64934036 11.84434167 85.44103495 13.5 83.1875 C22.19956655 70.85535213 24.82652949 55.90449044 22.34765625 41.10546875 C19.22747823 26.15759754 11.98580527 14.30822342 -0.4765625 5.1875 C-6.30098799 1.48945207 -12.4586499 -0.87759855 -19 -3 C-19.99 -3.33 -20.98 -3.66 -22 -4 C-23.40664926 -4.14492123 -24.8181133 -4.24628931 -26.23046875 -4.31640625 C-27.03291016 -4.35830078 -27.83535156 -4.40019531 -28.66210938 -4.44335938 C-29.49548828 -4.48267578 -30.32886719 -4.52199219 -31.1875 -4.5625 C-32.03248047 -4.60568359 -32.87746094 -4.64886719 -33.74804688 -4.69335938 C-35.83184433 -4.79931518 -37.91590103 -4.9001502 -40 -5 C-40 -5.33 -40 -5.66 -40 -6 C-35.05 -6.33 -30.1 -6.66 -25 -7 C-27.83359844 -7.05449228 -30.66612485 -7.09390733 -33.5 -7.125 C-34.68722656 -7.15013672 -34.68722656 -7.15013672 -35.8984375 -7.17578125 C-39.91577234 -7.20871022 -43.45926361 -7.00170485 -47.34375 -5.9296875 C-50.82566805 -5.044328 -51.7845699 -4.98697999 -55 -6 C-37.12161165 -12.88892028 -16.06656778 -9.87272923 0 0 Z " fill="#CA464F" transform="translate(101,19)"/>
<path d="M0 0 C0.33 1.32 0.66 2.64 1 4 C1.99 4 2.98 4 4 4 C4 4.99 4 5.98 4 7 C4.763125 6.938125 5.52625 6.87625 6.3125 6.8125 C9 7 9 7 10.8125 8.1875 C12.41121458 10.62764331 12.35840349 12.13277207 12 15 C11.01 16.485 11.01 16.485 10 18 C10.99 18 11.98 18 13 18 C13 18.99 13 19.98 13 21 C13.639375 21.28875 14.27875 21.5775 14.9375 21.875 C17 23 17 23 18 25 C18.25 28 18.25 28 18 31 C17.01 31.66 16.02 32.32 15 33 C15.185625 33.804375 15.37125 34.60875 15.5625 35.4375 C15.706875 36.283125 15.85125 37.12875 16 38 C15.67 38.33 15.34 38.66 15 39 C16.485 39.495 16.485 39.495 18 40 C18.77341204 42.78428335 19.17574966 44.47275102 18.25 47.25 C17 49 17 49 14 50 C13.6278958 51.32303717 13.29369827 52.65737935 13 54 C12.01 54.495 12.01 54.495 11 55 C11.66 55.66 12.32 56.32 13 57 C13.36487512 59.84602594 13.40199375 61.3864306 11.8125 63.8125 C9.44017475 65.36678206 7.77958655 65.22537188 5 65 C4.67 66.32 4.34 67.64 4 69 C3.34 69 2.68 69 2 69 C2 69.66 2 70.32 2 71 C-0.64 70.34 -3.28 69.68 -6 69 C-4.02 68.505 -4.02 68.505 -2 68 C-1.87625 67.21625 -1.7525 66.4325 -1.625 65.625 C-1 63 -1 63 1 61 C1.99 61 2.98 61 4 61 C4.12375 60.195625 4.2475 59.39125 4.375 58.5625 C4.58125 57.716875 4.7875 56.87125 5 56 C5.99 55.505 5.99 55.505 7 55 C6.79375 54.4225 6.5875 53.845 6.375 53.25 C5.90760524 50.44563145 6.46287916 49.34613181 8 47 C8.99 46.505 8.99 46.505 10 46 C9.67 44.68 9.34 43.36 9 42 C9.99 41.505 9.99 41.505 11 41 C10.505 40.505 10.505 40.505 10 40 C9.95753357 37.32461486 9.95080541 34.67290614 10 32 C10 31.34 10 30.68 10 30 C10 26 10 26 11 25 C10.360625 24.79375 9.72125 24.5875 9.0625 24.375 C8.0415625 23.694375 8.0415625 23.694375 7 23 C6.62633887 21.00714063 6.29259485 19.00636471 6 17 C5.01 16.34 4.02 15.68 3 15 C3 13.68 3 12.36 3 11 C2.38125 10.87625 1.7625 10.7525 1.125 10.625 C-1 10 -1 10 -3 8 C-2.54545455 2.54545455 -2.54545455 2.54545455 0 0 Z " fill="#CE535F" transform="translate(98,34)"/>
<path d="M0 0 C0.33 2.97 0.66 5.94 1 9 C0.01 9.33 -0.98 9.66 -2 10 C-2.309375 10.99 -2.61875 11.98 -2.9375 13 C-3.288125 13.99 -3.63875 14.98 -4 16 C-6.125 16.875 -6.125 16.875 -8 17 C-7.67 18.65 -7.34 20.3 -7 22 C-7.66 22.33 -8.32 22.66 -9 23 C-8.814375 23.556875 -8.62875 24.11375 -8.4375 24.6875 C-7.91625645 27.44264447 -8.2042131 29.32326225 -9 32 C-9.99 32.495 -9.99 32.495 -11 33 C-10.34 33.33 -9.68 33.66 -9 34 C-9 34.99 -9 35.98 -9 37 C-9.99 37.495 -9.99 37.495 -11 38 C-10.01 38.66 -9.02 39.32 -8 40 C-7.59156077 42.71203652 -7.86663133 45.2437142 -8 48 C-7.34 48.33 -6.68 48.66 -6 49 C-6.33 49.99 -6.66 50.98 -7 52 C-7 51.34 -7 50.68 -7 50 C-8.65 50 -10.3 50 -12 50 C-12 49.01 -12 48.02 -12 47 C-12.66 46.67 -13.32 46.34 -14 46 C-14 44.35 -14 42.7 -14 41 C-14.99 40.67 -15.98 40.34 -17 40 C-18.3125 37.6875 -18.3125 37.6875 -19 35 C-17.94921715 31.65660002 -17.00746531 31.00497688 -14 29 C-14 27.68 -14 26.36 -14 25 C-13.67 24.67 -13.34 24.34 -13 24 C-13.99 23.34 -14.98 22.68 -16 22 C-16.66932271 15.86454183 -16.66932271 15.86454183 -14.5 13.0625 C-14.005 12.711875 -13.51 12.36125 -13 12 C-13 12.66 -13 13.32 -13 14 C-11.68 13.67 -10.36 13.34 -9 13 C-8.97421875 12.39671875 -8.9484375 11.7934375 -8.921875 11.171875 C-8.45895153 4.64886251 -8.45895153 4.64886251 -6.1875 1.4375 C-4 0 -4 0 0 0 Z " fill="#C53542" transform="translate(36,36)"/>
<path d="M0 0 C9.72745098 -0.4745098 9.72745098 -0.4745098 14.6875 1.375 C17.7264985 4.82467398 17.60611615 7.09252023 17.50390625 11.5625 C16.91010648 14.43483376 16.0049913 15.87651039 14 18 C9.36297289 19.5456757 4.87528349 19.05735628 0 19 C0 12.73 0 6.46 0 0 Z " fill="#080707" transform="translate(39,62)"/>
<path d="M0 0 C0.66 0.33 1.32 0.66 2 1 C1.19175781 1.56847656 0.38351563 2.13695312 -0.44921875 2.72265625 C-6.36832051 6.99954643 -11.051651 10.77835915 -15 17 C-15.80308594 17.77085938 -16.60617188 18.54171875 -17.43359375 19.3359375 C-25.81198113 28.03313718 -28.78850958 41.86643098 -29.09375 53.60546875 C-28.72815867 61.84041353 -26.91504569 69.30945283 -24 77 C-23.51080078 78.29357422 -23.51080078 78.29357422 -23.01171875 79.61328125 C-17.12928984 93.02521916 -4.89781553 103.36501573 8.4375 108.8125 C21.48133617 113.46663873 33.39068773 113.44890017 47 112 C47 111.34 47 110.68 47 110 C48.60875 109.7215625 48.60875 109.7215625 50.25 109.4375 C55.53163298 108.16197146 59.79976498 105.32409112 64.36328125 102.4609375 C67 101 67 101 70 101 C55.33048208 112.26177592 39.78200679 116.76357999 21.3984375 114.5703125 C4.32278361 111.70669352 -8.77041193 103.34600256 -19.4375 89.9375 C-29.33962317 75.6085453 -32.86385823 58.63346841 -30.0625 41.5 C-26.28876961 25.44049265 -17.57061164 11.55186793 -3.8125 2.25 C-2.55243563 1.48204483 -1.28587844 0.72390193 0 0 Z " fill="#FBFAFA" transform="translate(34,19)"/>
<path d="M0 0 C2.97 0 5.94 0 9 0 C8.67 1.98 8.34 3.96 8 6 C8.66 6 9.32 6 10 6 C9.36418863 9.68770593 9.36418863 9.68770593 7.46484375 11.31640625 C5.44698907 13.6355939 5.72532319 15.10505015 5.875 18.125 C5.94560869 19.74899985 5.99417375 21.37447634 6 23 C5.67 23.33 5.34 23.66 5 24 C4.84379445 25.41327947 4.74943827 26.8335459 4.68359375 28.25390625 C4.64169922 29.10791016 4.59980469 29.96191406 4.55664062 30.84179688 C4.51732422 31.73962891 4.47800781 32.63746094 4.4375 33.5625 C4.39431641 34.46419922 4.35113281 35.36589844 4.30664062 36.29492188 C4.20021858 38.52978485 4.09820012 40.76476308 4 43 C2.68 43 1.36 43 0 43 C-0.02895225 39.70835171 -0.0467823 36.41673601 -0.0625 33.125 C-0.07506836 31.71927734 -0.07506836 31.71927734 -0.08789062 30.28515625 C-0.09111328 29.38925781 -0.09433594 28.49335937 -0.09765625 27.5703125 C-0.10289307 26.74289551 -0.10812988 25.91547852 -0.11352539 25.06298828 C0.00995365 22.81912182 0.39728959 21.60271041 2 20 C0.68 19.67 -0.64 19.34 -2 19 C-2.66 16.36 -3.32 13.72 -4 11 C-3.34 11 -2.68 11 -2 11 C-1.93941406 10.37351562 -1.87882812 9.74703125 -1.81640625 9.1015625 C-1.73261719 8.28429688 -1.64882813 7.46703125 -1.5625 6.625 C-1.48128906 5.81289063 -1.40007813 5.00078125 -1.31640625 4.1640625 C-1 2 -1 2 0 0 Z " fill="#FEBB0C" transform="translate(60,38)"/>
<path d="M0 0 C11.48739106 8.67415244 16.75648196 20.99434852 19 35 C19.0659735 37.10323534 19.08562245 39.20835724 19.0625 41.3125 C19.05347656 42.38113281 19.04445313 43.44976562 19.03515625 44.55078125 C19.02355469 45.35902344 19.01195313 46.16726562 19 47 C18.67 47 18.34 47 18 47 C17.505 42.05 17.505 42.05 17 37 C15.35 37 13.7 37 12 37 C9.83267588 33.25820723 8.93603023 29.22747211 7.9375 25.0625 C7.67743164 24.00772461 7.67743164 24.00772461 7.41210938 22.93164062 C6.52434689 19.30235874 5.69681033 15.67082558 5 12 C4.01 11.67 3.02 11.34 2 11 C0 8 0 8 0.4375 5.5 C0.7159375 4.2625 0.7159375 4.2625 1 3 C0.67 2.01 0.34 1.02 0 0 Z " fill="#F7D815" transform="translate(106,29)"/>
<path d="M0 0 C0.495 0.99 0.495 0.99 1 2 C-0.43666016 2.02126953 -0.43666016 2.02126953 -1.90234375 2.04296875 C-20.25395456 2.58820452 -37.92370149 7.60630776 -50.8984375 21.3359375 C-56.32557326 28.21568952 -60.12965695 36.17620838 -64 44 C-64.33 44 -64.66 44 -65 44 C-65.74713783 37.27575956 -63.51756437 31.72718932 -60 26 C-59.01 25.67 -58.02 25.34 -57 25 C-56.69707031 24.23945312 -56.39414062 23.47890625 -56.08203125 22.6953125 C-54.79875854 19.49871261 -53.28805275 18.10404521 -50.6875 15.875 C-49.92824219 15.21242188 -49.16898438 14.54984375 -48.38671875 13.8671875 C-46.02074653 12.01623051 -43.5796147 10.53137662 -41 9 C-39.9790625 7.9790625 -39.9790625 7.9790625 -38.9375 6.9375 C-29.88634967 -2.11365033 -11.76114043 -0.36374661 0 0 Z " fill="#C02D37" transform="translate(76,11)"/>
<path d="M0 0 C3.0831351 1.19899698 6.06279492 2.47700477 9 4 C9 4.66 9 5.32 9 6 C9.73863281 6.04898438 10.47726563 6.09796875 11.23828125 6.1484375 C17.34212105 6.59827576 23.2381708 7.35064124 29.2421875 8.5234375 C33.79946789 9.31095621 38.3906772 9.66121032 43 10 C42.34 10.66 41.68 11.32 41 12 C40.83312552 14.58354218 40.83312552 14.58354218 41 17 C31.97966173 17.36027978 23.56436658 17.13260388 15 14 C14.34 13.34 13.68 12.68 13 12 C12.01 11.34 11.02 10.68 10 10 C10 9.34 10 8.68 10 8 C9.01 8 8.02 8 7 8 C7 7.34 7 6.68 7 6 C4.03 5.505 4.03 5.505 1 5 C1 4.01 1 3.02 1 2 C0.34 1.67 -0.32 1.34 -1 1 C-0.67 0.67 -0.34 0.34 0 0 Z " fill="#EACE13" transform="translate(33,111)"/>
<path d="M0 0 C-0.60335782 6.39559286 -0.60335782 6.39559286 -2.3125 9 C-4 10 -4 10 -6 9.625 C-6.66 9.41875 -7.32 9.2125 -8 9 C-8.99 9.33 -9.98 9.66 -11 10 C-11 10.66 -11 11.32 -11 12 C-10.01 12.33 -9.02 12.66 -8 13 C-8.99 13.495 -8.99 13.495 -10 14 C-10.44890397 15.89180957 -10.89306611 17.78647922 -11.2421875 19.69921875 C-12 22 -12 22 -13.9296875 24.80859375 C-16.19650833 28.30291945 -17.18947766 31.36016541 -18.25 35.375 C-18.58515625 36.62023438 -18.9203125 37.86546875 -19.265625 39.1484375 C-19.62914062 40.55996094 -19.62914062 40.55996094 -20 42 C-20.99 42 -21.98 42 -23 42 C-23.19294408 37.17639811 -22.75747614 33.50353262 -21 29 C-21.99 29.33 -22.98 29.66 -24 30 C-21.20827027 20.92687837 -11.37871569 0 0 0 Z " fill="#E5CA14" transform="translate(37,23)"/>
<path d="M0 0 C1.50433594 0.01353516 1.50433594 0.01353516 3.0390625 0.02734375 C3.80992188 0.03894531 4.58078125 0.05054688 5.375 0.0625 C5.045 1.3825 4.715 2.7025 4.375 4.0625 C3.281875 4.02125 2.18875 3.98 1.0625 3.9375 C-2.71392229 3.74175334 -2.71392229 3.74175334 -5.625 6.0625 C-5.89528374 9.77890139 -5.805933 12.519701 -4.625 16.0625 C-2.645 16.0625 -0.665 16.0625 1.375 16.0625 C1.375 14.7425 1.375 13.4225 1.375 12.0625 C0.385 12.0625 -0.605 12.0625 -1.625 12.0625 C-1.625 10.7425 -1.625 9.4225 -1.625 8.0625 C1.015 8.0625 3.655 8.0625 6.375 8.0625 C6.375 11.6925 6.375 15.3225 6.375 19.0625 C-5.34596861 19.83474537 -5.34596861 19.83474537 -9.9375 17.0625 C-12.09632744 13.22458454 -12.59041165 10.36771412 -11.625 6.0625 C-8.23789967 0.75604281 -6.09650705 -0.07088962 0 0 Z " fill="#171716" transform="translate(93.625,61.9375)"/>
<path d="M0 0 C4.33311515 0.41664569 8.03536259 1.19789209 12 3 C9.42786866 4.61949011 8.32330841 5.04408751 5.25 4.625 C4.5075 4.41875 3.765 4.2125 3 4 C3.495 5.485 3.495 5.485 4 7 C3.01 7.66 2.02 8.32 1 9 C-0.03647024 10.30518475 -1.04422943 11.63461347 -2 13 C-2.33 12.34 -2.66 11.68 -3 11 C-3.99 10.67 -4.98 10.34 -6 10 C-6.33 10.99 -6.66 11.98 -7 13 C-7.226875 12.360625 -7.45375 11.72125 -7.6875 11.0625 C-8.8477167 8.75631253 -8.8477167 8.75631253 -11.5 8.1875 C-13.99790956 7.78526509 -13.99790956 7.78526509 -16 9 C-16.73075648 11.3140622 -17.40138258 13.64828869 -18 16 C-20.3125 16.1875 -20.3125 16.1875 -23 16 C-24.5625 14.625 -24.5625 14.625 -26 13 C-27.3187302 12.30489362 -28.65105091 11.63447503 -30 11 C-29.30132812 10.74605469 -28.60265625 10.49210937 -27.8828125 10.23046875 C-26.97273438 9.88628906 -26.06265625 9.54210938 -25.125 9.1875 C-24.22007813 8.85105469 -23.31515625 8.51460937 -22.3828125 8.16796875 C-19.70574151 7.10350976 -19.70574151 7.10350976 -18 4 C-17.34 4 -16.68 4 -16 4 C-16 4.66 -16 5.32 -16 6 C-15.34 5.67 -14.68 5.34 -14 5 C-11.95944995 4.92934383 -9.91665743 4.91578024 -7.875 4.9375 C-6.77929688 4.94652344 -5.68359375 4.95554687 -4.5546875 4.96484375 C-3.71164063 4.97644531 -2.86859375 4.98804688 -2 5 C-1.855625 4.360625 -1.71125 3.72125 -1.5625 3.0625 C-1 1 -1 1 0 0 Z " fill="#F9DA1D" transform="translate(75,14)"/>
<path d="M0 0 C3.20096714 1.81388138 3.96443112 2.90218559 5.25 6.4375 C6 10 6 10 6 14 C5.01 14.33 4.02 14.66 3 15 C2.67 14.34 2.34 13.68 2 13 C1.10869587 15.6739124 0.52268466 18.23723823 0 21 C-2.9375 19.8125 -2.9375 19.8125 -6 18 C-6.9375 15.4375 -6.9375 15.4375 -7 13 C-6.67 12.34 -6.34 11.68 -6 11 C-11.36090593 10.46326107 -11.36090593 10.46326107 -16 12.5 C-16.33 12.995 -16.66 13.49 -17 14 C-16.67 12.35 -16.34 10.7 -16 9 C-14.68 9 -13.36 9 -12 9 C-11.67 8.01 -11.34 7.02 -11 6 C-10.236875 6.185625 -9.47375 6.37125 -8.6875 6.5625 C-5.91032625 7.22819173 -5.91032625 7.22819173 -3 6 C-3 5.34 -3 4.68 -3 4 C-2.01 4 -1.02 4 0 4 C0 2.68 0 1.36 0 0 Z " fill="#FE7F18" transform="translate(84,82)"/>
<path d="M0 0 C4.19526053 3.10289598 8.11834827 6.51752522 12 10 C11.67 10.66 11.34 11.32 11 12 C10.608125 11.525625 10.21625 11.05125 9.8125 10.5625 C8.09144612 8.81096947 8.09144612 8.81096947 5.65234375 8.578125 C2.72050019 7.9390781 1.15676555 6.94800443 -1.25 5.1875 C-10.56687962 -1.26621894 -20.15734854 -4.18870083 -31.4375 -4.625 C-32.26443359 -4.66367188 -33.09136719 -4.70234375 -33.94335938 -4.7421875 C-35.96191073 -4.83553092 -37.98092331 -4.91880961 -40 -5 C-40 -5.33 -40 -5.66 -40 -6 C-35.05 -6.33 -30.1 -6.66 -25 -7 C-27.83359844 -7.05449228 -30.66612485 -7.09390733 -33.5 -7.125 C-34.68722656 -7.15013672 -34.68722656 -7.15013672 -35.8984375 -7.17578125 C-39.91577234 -7.20871022 -43.45926361 -7.00170485 -47.34375 -5.9296875 C-50.82566805 -5.044328 -51.7845699 -4.98697999 -55 -6 C-37.18951414 -12.86275602 -15.98373635 -9.9386053 0 0 Z " fill="#DE8C85" transform="translate(101,19)"/>
<path d="M0 0 C-0.99 0.66 -1.98 1.32 -3 2 C-3.36162029 3.32594105 -3.69728039 4.65938457 -4 6 C-4.99 6.495 -4.99 6.495 -6 7 C-5.34 7.66 -4.68 8.32 -4 9 C-3.63512488 11.84602594 -3.59800625 13.3864306 -5.1875 15.8125 C-7.55982525 17.36678206 -9.22041345 17.22537188 -12 17 C-12.33 18.32 -12.66 19.64 -13 21 C-13.66 21 -14.32 21 -15 21 C-15 21.66 -15 22.32 -15 23 C-17.64 22.34 -20.28 21.68 -23 21 C-21.68 20.67 -20.36 20.34 -19 20 C-18.87625 19.21625 -18.7525 18.4325 -18.625 17.625 C-18 15 -18 15 -16 13 C-15.01 13 -14.02 13 -13 13 C-12.87625 12.195625 -12.7525 11.39125 -12.625 10.5625 C-12.41875 9.716875 -12.2125 8.87125 -12 8 C-11.34 7.67 -10.68 7.34 -10 7 C-10.20625 6.4225 -10.4125 5.845 -10.625 5.25 C-11.09530596 2.42816426 -10.60769874 1.33116317 -9 -1 C-5.23375329 -2.25541557 -3.62811066 -1.37061958 0 0 Z " fill="#DB8189" transform="translate(115,82)"/>
<path d="M0 0 C0.99 0.33 1.98 0.66 3 1 C2.9071875 2.051875 2.9071875 2.051875 2.8125 3.125 C2.81253391 6.15242441 2.81253391 6.15242441 4.625 9.0625 C5.305625 10.5165625 5.305625 10.5165625 6 12 C5.0859375 14.18359375 5.0859375 14.18359375 4 16 C3.38511719 15.89300781 2.77023438 15.78601562 2.13671875 15.67578125 C0.92435547 15.49595703 0.92435547 15.49595703 -0.3125 15.3125 C-1.11300781 15.18488281 -1.91351563 15.05726562 -2.73828125 14.92578125 C-5.06832684 14.78736986 -5.06832684 14.78736986 -6.7890625 16.328125 C-8.43958163 18.60690626 -8.06753518 20.23105754 -8 23 C-9 25.3125 -9 25.3125 -10 27 C-9.01 27.33 -8.02 27.66 -7 28 C-9.31 28 -11.62 28 -14 28 C-13.34580901 22.93001981 -11.1453591 18.58009223 -9 14 C-9.66 13.67 -10.32 13.34 -11 13 C-11 12.34 -11 11.68 -11 11 C-9 9.375 -9 9.375 -7 8 C-6.67 8.66 -6.34 9.32 -6 10 C-3.96758273 9.36020151 -3.96758273 9.36020151 -2 8 C-1.24680201 5.56740432 -1.24680201 5.56740432 -1 3 C-0.67 2.01 -0.34 1.02 0 0 Z " fill="#FADE1D" transform="translate(37,22)"/>
<path d="M0 0 C4.80169352 0.98121563 7.84292541 3.33371983 11 7 C20.60849394 21.97794644 22.49531415 35.46220999 22 53 C21.67 53 21.34 53 21 53 C21 47.06 21 41.12 21 35 C20.34 35 19.68 35 19 35 C18.67 35.66 18.34 36.32 18 37 C17.68869141 35.47632812 17.68869141 35.47632812 17.37109375 33.921875 C14.75005262 21.90669426 10.74776702 11.66506009 1.28515625 3.3046875 C0 2 0 2 0 0 Z " fill="#D36469" transform="translate(106,27)"/>
<path d="M0 0 C1.6744239 0.6469365 3.34302621 1.30959426 5 2 C2.45217026 4.97246802 -0.45340883 6.41535288 -4 8 C-4.66 8 -5.32 8 -6 8 C-6.144375 8.639375 -6.28875 9.27875 -6.4375 9.9375 C-7 12 -7 12 -8 13 C-9.66617115 13.04063832 -11.33388095 13.042721 -13 13 C-13 13.99 -13 14.98 -13 16 C-12.01 15.67 -11.02 15.34 -10 15 C-9.67 15.66 -9.34 16.32 -9 17 C-12.96 17.495 -12.96 17.495 -17 18 C-17 16.68 -17 15.36 -17 14 C-21.455 13.01 -21.455 13.01 -26 12 C-24.68 10.02 -23.36 8.04 -22 6 C-21.67 6.66 -21.34 7.32 -21 8 C-19.68 8 -18.36 8 -17 8 C-17 7.34 -17 6.68 -17 6 C-16.34 6 -15.68 6 -15 6 C-14.67 6.66 -14.34 7.32 -14 8 C-10.65747276 8.07427838 -8.1964086 8.06546953 -5 7 C-5 6.01 -5 5.02 -5 4 C-4.01 3.67 -3.02 3.34 -2 3 C-1.67 2.34 -1.34 1.68 -1 1 C-2.32 1 -3.64 1 -5 1 C-5.33 1.66 -5.66 2.32 -6 3 C-6 2.01 -6 1.02 -6 0 C-3.43417606 -1.28291197 -2.6963913 -0.84743727 0 0 Z " fill="#FADA2E" transform="translate(91,109)"/>
<path d="M0 0 C0.33 1.32 0.66 2.64 1 4 C1.99 4 2.98 4 4 4 C4 4.99 4 5.98 4 7 C4.763125 6.938125 5.52625 6.87625 6.3125 6.8125 C9 7 9 7 10.8125 8.1875 C12.41121458 10.62764331 12.35840349 12.13277207 12 15 C11.01 16.485 11.01 16.485 10 18 C10.99 18 11.98 18 13 18 C13 18.99 13 19.98 13 21 C13.99 21.66 14.98 22.32 16 23 C13.69 23 11.38 23 9 23 C8.9175 22.21625 8.835 21.4325 8.75 20.625 C8.5025 19.75875 8.255 18.8925 8 18 C7.34 17.67 6.68 17.34 6 17 C5.34 16.67 4.68 16.34 4 16 C3.25 13.375 3.25 13.375 3 11 C2.38125 10.87625 1.7625 10.7525 1.125 10.625 C-1 10 -1 10 -3 8 C-2.54545455 2.54545455 -2.54545455 2.54545455 0 0 Z " fill="#C02333" transform="translate(98,34)"/>
<path d="M0 0 C0 0.66 0 1.32 0 2 C1.32 2.66 2.64 3.32 4 4 C4 4.99 4 5.98 4 7 C5.32 6.67 6.64 6.34 8 6 C8.66 7.32 9.32 8.64 10 10 C10.33 9.34 10.66 8.68 11 8 C13.31 8.33 15.62 8.66 18 9 C18.625 11.875 18.625 11.875 19 15 C18.34 15.66 17.68 16.32 17 17 C16.67 15.35 16.34 13.7 16 12 C15.67 12.99 15.34 13.98 15 15 C12.83125748 14.49396008 11.00032373 14.00016187 9 13 C9 13.66 9 14.32 9 15 C6.125 15.1875 6.125 15.1875 3 15 C0.5705484 11.3558226 0.83820425 9.28758728 1 5 C-2.04913228 3.98888907 -2.04913228 3.98888907 -5 5 C-5 4.01 -5 3.02 -5 2 C-2 0 -2 0 0 0 Z " fill="#C63640" transform="translate(42,101)"/>
<path d="M0 0 C0.33 2.97 0.66 5.94 1 9 C0.01 9.33 -0.98 9.66 -2 10 C-3.22520264 13.00847418 -3.22520264 13.00847418 -4 16 C-5.65 16.33 -7.3 16.66 -9 17 C-9.33 16.34 -9.66 15.68 -10 15 C-11.32 15.33 -12.64 15.66 -14 16 C-14.33 17.98 -14.66 19.96 -15 22 C-15.33 22 -15.66 22 -16 22 C-16.36923077 15.47692308 -16.36923077 15.47692308 -14.5 13.0625 C-14.005 12.711875 -13.51 12.36125 -13 12 C-13 12.66 -13 13.32 -13 14 C-11.68 13.67 -10.36 13.34 -9 13 C-8.97421875 12.39671875 -8.9484375 11.7934375 -8.921875 11.171875 C-8.45895153 4.64886251 -8.45895153 4.64886251 -6.1875 1.4375 C-4 0 -4 0 0 0 Z " fill="#CF5657" transform="translate(36,36)"/>
<path d="M0 0 C0.495 0.99 0.495 0.99 1 2 C0.04222656 2.01417969 -0.91554687 2.02835938 -1.90234375 2.04296875 C-16.20834536 2.47153138 -29.52731695 5.79832797 -42 13 C-41.21042494 9.18770828 -39.98682184 7.560133 -37 5 C-26.29228032 -1.31294131 -11.94792357 -0.36952341 0 0 Z " fill="#CC4E51" transform="translate(76,11)"/>
<path d="M0 0 C3.36202939 1.42609159 5.23675579 3.14348515 7.5625 5.9375 C9.92126517 8.78717784 9.92126517 8.78717784 12.57421875 11.34765625 C14.69048937 13.80021096 15.31989185 16.4181491 16.25 19.5 C16.60578125 20.6446875 16.9615625 21.789375 17.328125 22.96875 C18 26 18 26 17 29 C16.67 28.34 16.34 27.68 16 27 C13.98330173 25.86649466 13.98330173 25.86649466 12 25 C12.33 24.01 12.66 23.02 13 22 C11.68 22.33 10.36 22.66 9 23 C9.33 22.443125 9.66 21.88625 10 21.3125 C11.15249005 18.64736676 11.30274405 16.87606851 11 14 C8.64046906 11.64046906 7.22104383 11.50858587 4 11 C4 10.01 4 9.02 4 8 C2.68 8.33 1.36 8.66 0 9 C0.185625 7.88625 0.37125 6.7725 0.5625 5.625 C1.31680657 2.17431139 1.31680657 2.17431139 0 0 Z " fill="#FADE1D" transform="translate(98,30)"/>
<path d="M0 0 C1.65 0 3.3 0 5 0 C5 5.28 5 10.56 5 16 C7.64 16 10.28 16 13 16 C13 16.99 13 17.98 13 19 C8.71 19 4.42 19 0 19 C0 12.73 0 6.46 0 0 Z " fill="#14110E" transform="translate(68,62)"/>
<path d="M0 0 C1.32 0 2.64 0 4 0 C3.71982692 3.32777 3.3864242 4.65635598 0.84765625 6.9140625 C-13.66584148 15.82978761 -13.66584148 15.82978761 -20.28515625 14.5625 C-20.85105469 14.376875 -21.41695313 14.19125 -22 14 C-22 13.01 -22 12.02 -22 11 C-21.443125 10.91363281 -20.88625 10.82726562 -20.3125 10.73828125 C-15.01223311 9.76238752 -11.15618936 8.19266628 -6.7265625 5.12109375 C-5 4 -5 4 -2 3 C-1.34 2.01 -0.68 1.02 0 0 Z " fill="#F4D615" transform="translate(100,111)"/>
<path d="M0 0 C0.87914063 0.00902344 1.75828125 0.01804687 2.6640625 0.02734375 C4.8178271 0.05075423 6.97145014 0.0866199 9.125 0.125 C8.465 1.775 7.805 3.425 7.125 5.125 C-0.795 5.62 -0.795 5.62 -8.875 6.125 C-8.875 5.465 -8.875 4.805 -8.875 4.125 C-11.185 4.125 -13.495 4.125 -15.875 4.125 C-15.875 3.465 -15.875 2.805 -15.875 2.125 C-10.49292923 -0.11605897 -5.71754456 -0.11193988 0 0 Z " fill="#FADD15" transform="translate(65.875,13.875)"/>
<path d="M0 0 C3.375 0.3125 3.375 0.3125 7 1 C9 4 9 4 8.8125 7.5625 C8 11 8 11 5 13 C3.35 13 1.7 13 0 13 C0 8.71 0 4.42 0 0 Z " fill="#E9E9E9" transform="translate(43,65)"/>
<path d="M0 0 C1.0828125 0.2475 1.0828125 0.2475 2.1875 0.5 C4.99927507 1.20937115 4.99927507 1.20937115 7.6875 0.25 C12.849356 -0.13957404 16.60407394 2.48928334 21 5 C20.01 5.495 20.01 5.495 19 6 C19 6.99 19 7.98 19 9 C19.99 9.33 20.98 9.66 22 10 C21.34 10 20.68 10 20 10 C19.67 10.66 19.34 11.32 19 12 C18.53851563 11.68546875 18.07703125 11.3709375 17.6015625 11.046875 C12.94472228 7.99139881 8.33489292 5.79829696 3.1015625 3.89453125 C1 3 1 3 -1 1 C-0.67 0.67 -0.34 0.34 0 0 Z " fill="#DEC413" transform="translate(78,17)"/>
<path d="M0 0 C2.375 0.25 2.375 0.25 5 1 C6.3125 3.0625 6.3125 3.0625 7 5 C9.31 5 11.62 5 14 5 C14 5.66 14 6.32 14 7 C13.01 7.33 12.02 7.66 11 8 C11.66 9.32 12.32 10.64 13 12 C11.0625 11.25 11.0625 11.25 9 10 C8.25 7.875 8.25 7.875 8 6 C6.35 6 4.7 6 3 6 C3 6.99 3 7.98 3 9 C2.01 9 1.02 9 0 9 C0 14.28 0 19.56 0 25 C-0.33 25 -0.66 25 -1 25 C-1.02903577 21.89585298 -1.0468107 18.79174091 -1.0625 15.6875 C-1.07087891 14.80642578 -1.07925781 13.92535156 -1.08789062 13.01757812 C-1.09111328 12.17001953 -1.09433594 11.32246094 -1.09765625 10.44921875 C-1.10289307 9.66893311 -1.10812988 8.88864746 -1.11352539 8.0847168 C-1 6 -1 6 0 3 C0 2.01 0 1.02 0 0 Z " fill="#E2D1AC" transform="translate(65,56)"/>
<path d="M0 0 C0.78375 0.04125 1.5675 0.0825 2.375 0.125 C2.375 3.095 2.375 6.065 2.375 9.125 C1.055 9.125 -0.265 9.125 -1.625 9.125 C-1.8725 9.74375 -2.12 10.3625 -2.375 11 C-3.83128639 13.47568687 -5.00312506 14.07625002 -7.625 15.125 C-8.615 13.805 -9.605 12.485 -10.625 11.125 C-8.975 11.125 -7.325 11.125 -5.625 11.125 C-4.45280466 8.16761196 -4.45280466 8.16761196 -4.6875 5.0625 C-4.60540465 1.2040186 -3.90932841 0.1861585 0 0 Z " fill="#C02231" transform="translate(46.625,25.875)"/>
<path d="M0 0 C0.66 0 1.32 0 2 0 C2.33 1.98 2.66 3.96 3 6 C3.66 6 4.32 6 5 6 C5 7.65 5 9.3 5 11 C5.66 11 6.32 11 7 11 C6.979375 11.7425 6.95875 12.485 6.9375 13.25 C6.99328688 15.70462279 7.3069904 17.66109261 8 20 C6.35 19.67 4.7 19.34 3 19 C-0.44419134 6.51480638 -0.44419134 6.51480638 0 0 Z " fill="#DEC413" transform="translate(114,46)"/>
<path d="M0 0 C1.32 0 2.64 0 4 0 C4 6.27 4 12.54 4 19 C2.68 19 1.36 19 0 19 C0 12.73 0 6.46 0 0 Z " fill="#020202" transform="translate(60,62)"/>
<path d="M0 0 C0.99 0.99 1.98 1.98 3 3 C6.10839021 3.7269226 6.10839021 3.7269226 9 4 C8.34 4.66 7.68 5.32 7 6 C7.165 6.66 7.33 7.32 7.5 8 C7.665 8.66 7.83 9.32 8 10 C7.34 10.66 6.68 11.32 6 12 C6.66 12.33 7.32 12.66 8 13 C5.36 13 2.72 13 0 13 C0 8.71 0 4.42 0 0 Z " fill="#FAF2E6" transform="translate(73,64)"/>
<path d="M0 0 C0.99 0 1.98 0 3 0 C2.41632611 6.30367803 0.95928381 11.98660063 -1 18 C-1.99 18 -2.98 18 -4 18 C-4.19294408 13.17639811 -3.75747614 9.50353262 -2 5 C-2.99 5.33 -3.98 5.66 -5 6 C-4.34 4.68 -3.68 3.36 -3 2 C-2.01 2.33 -1.02 2.66 0 3 C0 2.01 0 1.02 0 0 Z " fill="#CFB512" transform="translate(18,47)"/>
<path d="M0 0 C5.38859613 1.01627032 9.12918206 4.46921422 12.33984375 8.8125 C14.36987691 12.16458322 15 14.01615917 15 18 C11.27501691 16.75833897 10.74070062 15.48577741 8.625 12.25 C6.60637539 9.24992097 4.69264724 6.48777459 2.0625 4 C1.381875 3.34 0.70125 2.68 0 2 C0 1.34 0 0.68 0 0 Z " fill="#C94046" transform="translate(106,27)"/>
<path d="M0 0 C-0.99 0.495 -0.99 0.495 -2 1 C-2.73075648 3.3140622 -3.40138258 5.64828869 -4 8 C-6.3125 8.1875 -6.3125 8.1875 -9 8 C-10.5625 6.625 -10.5625 6.625 -12 5 C-13.3187302 4.30489362 -14.65105091 3.63447503 -16 3 C-14.08802961 2.29954544 -12.17019565 1.615081 -10.25 0.9375 C-9.18265625 0.55464844 -8.1153125 0.17179687 -7.015625 -0.22265625 C-4.07719958 -0.98010011 -2.77651052 -1.07151741 0 0 Z " fill="#F1CDC1" transform="translate(61,22)"/>
<path d="M0 0 C3.0831351 1.19899698 6.06279492 2.47700477 9 4 C9 4.66 9 5.32 9 6 C9.9075 6.2475 10.815 6.495 11.75 6.75 C15.10351489 8.03981342 16.67708236 9.31971042 19 12 C17.02 12.99 17.02 12.99 15 14 C14.34 13.34 13.68 12.68 13 12 C12.01 11.34 11.02 10.68 10 10 C10 9.34 10 8.68 10 8 C9.01 8 8.02 8 7 8 C7 7.34 7 6.68 7 6 C4.03 5.505 4.03 5.505 1 5 C1 4.01 1 3.02 1 2 C0.34 1.67 -0.32 1.34 -1 1 C-0.67 0.67 -0.34 0.34 0 0 Z " fill="#B9A611" transform="translate(33,111)"/>
<path d="M0 0 C0.66 0 1.32 0 2 0 C2.33 1.65 2.66 3.3 3 5 C5.64 5 8.28 5 11 5 C12.35439668 7.70879335 12.06501451 10.00933268 12 13 C9.36 12.67 6.72 12.34 4 12 C4 8 4 8 5 7 C4.360625 6.773125 3.72125 6.54625 3.0625 6.3125 C1 5 1 5 0.25 2.375 C0.1675 1.59125 0.085 0.8075 0 0 Z " fill="#BF2130" transform="translate(104,52)"/>
<path d="M0 0 C7.35610805 2.29878377 13.22470004 8.09099503 19 13 C18.67 13.66 18.34 14.32 18 15 C17.608125 14.525625 17.21625 14.05125 16.8125 13.5625 C15.09510276 11.81357315 15.09510276 11.81357315 12.6796875 11.5859375 C9.65417359 10.92438198 7.84569898 9.82154649 5.3125 8.0625 C4.54550781 7.53785156 3.77851562 7.01320313 2.98828125 6.47265625 C1 5 1 5 -1 3 C-0.34 2.67 0.32 2.34 1 2 C0.67 1.34 0.34 0.68 0 0 Z " fill="#D46A6F" transform="translate(94,16)"/>
<path d="M0 0 C0.66 0.33 1.32 0.66 2 1 C0.4773736 4.96239033 -1.9158722 6.73769944 -5.3125 9.1875 C-6.25738281 9.88230469 -7.20226562 10.57710937 -8.17578125 11.29296875 C-10.90675687 12.94364143 -12.86206019 13.6170456 -16 14 C-16.33 13.01 -16.66 12.02 -17 11 C-16.35933594 10.70867187 -15.71867187 10.41734375 -15.05859375 10.1171875 C-9.23391562 7.35675882 -4.70849405 4.40141835 0 0 Z " fill="#C1262E" transform="translate(106,112)"/>
<path d="M0 0 C0.66 0.33 1.32 0.66 2 1 C2.625 3.0625 2.625 3.0625 3 5 C2.34 5 1.68 5 1 5 C0.67 6.32 0.34 7.64 0 9 C-0.66 9 -1.32 9 -2 9 C-2 9.66 -2 10.32 -2 11 C-4.64 10.34 -7.28 9.68 -10 9 C-8.68 8.67 -7.36 8.34 -6 8 C-5.938125 7.236875 -5.87625 6.47375 -5.8125 5.6875 C-5 3 -5 3 -2.5625 1.125 C-1.716875 0.75375 -0.87125 0.3825 0 0 Z " fill="#DE8B92" transform="translate(102,94)"/>
<path d="M0 0 C0.33 0.66 0.66 1.32 1 2 C0.29296875 3.8828125 0.29296875 3.8828125 -0.8125 6.125 C-5.12485145 14.87424735 -5.2619771 22.91160277 -5.125 32.5 C-5.11597656 33.70398438 -5.10695313 34.90796875 -5.09765625 36.1484375 C-5.07423775 39.0991679 -5.04143993 42.04947689 -5 45 C-5.66 44.67 -6.32 44.34 -7 44 C-8.44472669 11.07293244 -8.44472669 11.07293244 0 0 Z " fill="#C2A0A4" transform="translate(14,40)"/>
<path d="M0 0 C0.9827968 2.94839041 1 4.94130972 1 8 C1.33 8.66 1.66 9.32 2 10 C-2.67105792 8.44298069 -6.08705685 5.91552627 -10 3 C-9 1 -9 1 -6.6875 -0.1875 C-3.87040626 -1.0391795 -2.65208667 -1.23132595 0 0 Z " fill="#F0CBC7" transform="translate(43,105)"/>
<path d="M0 0 C1.23363281 0.01353516 1.23363281 0.01353516 2.4921875 0.02734375 C4.49492083 0.05063135 6.49750154 0.08649041 8.5 0.125 C8.83 0.785 9.16 1.445 9.5 2.125 C8.47261719 2.18558594 7.44523437 2.24617187 6.38671875 2.30859375 C-1.58960238 2.78782871 -9.54724363 3.33309418 -17.5 4.125 C-17.5 3.465 -17.5 2.805 -17.5 2.125 C-11.50325593 0.37824198 -6.22635779 -0.13182842 0 0 Z " fill="#BD182C" transform="translate(67.5,10.875)"/>
<path d="M0 0 C2.97 0 5.94 0 9 0 C9.22732116 2.80362763 9.34081872 4.46186517 7.8125 6.875 C6 8 6 8 3.3125 7.6875 C2.549375 7.460625 1.78625 7.23375 1 7 C0.67 4.69 0.34 2.38 0 0 Z " fill="#C12735" transform="translate(102,91)"/>
<path d="M0 0 C0.66 2.31 1.32 4.62 2 7 C1.34 7.66 0.68 8.32 0 9 C-2.1640625 8.7578125 -2.1640625 8.7578125 -4.625 8.125 C-5.85089844 7.81949219 -5.85089844 7.81949219 -7.1015625 7.5078125 C-8.04128906 7.25644531 -8.04128906 7.25644531 -9 7 C-3.34042553 0 -3.34042553 0 0 0 Z " fill="#F1CFCD" transform="translate(41,29)"/>
<path d="M0 0 C0.99 0 1.98 0 3 0 C5.09230769 4.43076923 5.09230769 4.43076923 4.625 7.3125 C4.41875 7.869375 4.2125 8.42625 4 9 C1.69 8.67 -0.62 8.34 -3 8 C-2.25 2.25 -2.25 2.25 0 0 Z " fill="#C02333" transform="translate(63,111)"/>
<path d="M0 0 C1.258125 -0.04125 2.51625 -0.0825 3.8125 -0.125 C4.52019531 -0.14820312 5.22789063 -0.17140625 5.95703125 -0.1953125 C8 0 8 0 11 2 C11.1875 5.125 11.1875 5.125 11 8 C9.02 8 7.04 8 5 8 C4.67 6.35 4.34 4.7 4 3 C3.34 3 2.68 3 2 3 C2 2.34 2 1.68 2 1 C1.34 0.67 0.68 0.34 0 0 Z " fill="#F9DA16" transform="translate(46,118)"/>
<path d="M0 0 C3.71599191 -0.20086443 4.77208445 -0.1519437 8 2 C7.67 3.65 7.34 5.3 7 7 C4.69 7.33 2.38 7.66 0 8 C0 5.36 0 2.72 0 0 Z " fill="#C02130" transform="translate(92,103)"/>
<path d="M0 0 C0.33 1.32 0.66 2.64 1 4 C1.99 4 2.98 4 4 4 C4 4.99 4 5.98 4 7 C4.66 7.33 5.32 7.66 6 8 C5.01 9.485 5.01 9.485 4 11 C-0.75 10.25 -0.75 10.25 -3 8 C-2.54545455 2.54545455 -2.54545455 2.54545455 0 0 Z " fill="#C83E4B" transform="translate(98,34)"/>
<path d="M0 0 C0.33 0 0.66 0 1 0 C0.53199289 4.05606165 0.12046792 7.46588679 -2 11 C-1.01 11 -0.02 11 1 11 C0.34 12.32 -0.32 13.64 -1 15 C-1 14.01 -1 13.02 -1 12 C-1.99 12 -2.98 12 -4 12 C-4 12.99 -4 13.98 -4 15 C-4.99 15.33 -5.98 15.66 -7 16 C-6.67279478 9.78310074 -3.47200505 4.99100726 0 0 Z " fill="#F6D715" transform="translate(22,35)"/>
<path d="M0 0 C0.625 2.875 0.625 2.875 1 6 C0.34 6.66 -0.32 7.32 -1 8 C-1.33 6.35 -1.66 4.7 -2 3 C-2.33 3.99 -2.66 4.98 -3 6 C-5.16874252 5.49396008 -6.99967627 5.00016187 -9 4 C-9.33 4.66 -9.66 5.32 -10 6 C-10 2 -10 2 -8.9375 0.1875 C-5.89359393 -1.67811985 -3.36687843 -0.69878609 0 0 Z " fill="#C73B48" transform="translate(60,110)"/>
<path d="M0 0 C1.32 0 2.64 0 4 0 C2.61085525 4.29718953 0.61968015 6.70687757 -2.625 9.8125 C-3.44226563 10.60269531 -4.25953125 11.39289063 -5.1015625 12.20703125 C-5.72804688 12.79871094 -6.35453125 13.39039062 -7 14 C-7.66 13.67 -8.32 13.34 -9 13 C-8.5875 12.484375 -8.175 11.96875 -7.75 11.4375 C-6.3196139 9.4451765 -5.12738014 7.50965388 -3.9375 5.375 C-2 2 -2 2 0 0 Z " fill="#D46E76" transform="translate(113,105)"/>
<path d="M0 0 C0.33 0 0.66 0 1 0 C1 6.27 1 12.54 1 19 C0.34 18.34 -0.32 17.68 -1 17 C-2.32 16.67 -3.64 16.34 -5 16 C-4.34 12.7 -3.68 9.4 -3 6 C-2.67 6.66 -2.34 7.32 -2 8 C-1.34 8 -0.68 8 0 8 C0 5.36 0 2.72 0 0 Z " fill="#C9C2AD" transform="translate(59,62)"/>
<path d="M0 0 C1.32 0 2.64 0 4 0 C4 0.66 4 1.32 4 2 C4.99 2.33 5.98 2.66 7 3 C7 4.32 7 5.64 7 7 C4.36 7.33 1.72 7.66 -1 8 C-1.04241723 5.66705225 -1.04092937 3.33297433 -1 1 C-0.67 0.67 -0.34 0.34 0 0 Z " fill="#C02130" transform="translate(22,51)"/>
<path d="M0 0 C0.598125 0.350625 1.19625 0.70125 1.8125 1.0625 C1.43653791 3.84461944 1.13931541 5.6504284 -0.625 7.875 C-2.1875 9.0625 -2.1875 9.0625 -4.1875 9.0625 C-5.6658226 6.10585481 -5.24782783 3.32020263 -5.1875 0.0625 C-2.1875 -0.9375 -2.1875 -0.9375 0 0 Z " fill="#C02330" transform="translate(81.1875,22.9375)"/>
<path d="M0 0 C1.48831242 0.00667405 2.97660807 0.01863442 4.46484375 0.03515625 C5.22345703 0.03966797 5.98207031 0.04417969 6.76367188 0.04882812 C8.64326246 0.06064945 10.52281274 0.07858547 12.40234375 0.09765625 C12.40234375 1.08765625 12.40234375 2.07765625 12.40234375 3.09765625 C4.48234375 3.59265625 4.48234375 3.59265625 -3.59765625 4.09765625 C-3.92765625 3.10765625 -4.25765625 2.11765625 -4.59765625 1.09765625 C-3.59765625 0.09765625 -3.59765625 0.09765625 0 0 Z " fill="#BEAA11" transform="translate(60.59765625,15.90234375)"/>
<path d="M0 0 C0.33 0 0.66 0 1 0 C1 2.31 1 4.62 1 7 C1.66 5.68 2.32 4.36 3 3 C6 4 6 4 7.1875 5.75 C8.10819096 8.29960574 8.14948718 10.30923081 8 13 C7.34 12.01 6.68 11.02 6 10 C5.01 10.495 5.01 10.495 4 11 C1.375 9.9375 1.375 9.9375 -1 8 C-1.38692581 4.84010585 -1.43060128 2.86120256 0 0 Z " fill="#CB4B56" transform="translate(83,25)"/>
<path d="M0 0 C0.33 0.66 0.66 1.32 1 2 C-1.96178773 3.67110042 -4.37071192 4.32682752 -7.75 4.625 C-8.54921875 4.69976562 -9.3484375 4.77453125 -10.171875 4.8515625 C-10.77515625 4.90054688 -11.3784375 4.94953125 -12 5 C-12 4.34 -12 3.68 -12 3 C-13.32 2.67 -14.64 2.34 -16 2 C-14.08654673 1.46748234 -12.1690705 0.94940517 -10.25 0.4375 C-9.18265625 0.14746094 -8.1153125 -0.14257812 -7.015625 -0.44140625 C-4.15353343 -0.97156052 -2.64926665 -1.13274719 0 0 Z " fill="#C43130" transform="translate(90,125)"/>
<path d="M0 0 C0.66 0 1.32 0 2 0 C2.02903577 3.10414702 2.0468107 6.20825909 2.0625 9.3125 C2.07087891 10.19357422 2.07925781 11.07464844 2.08789062 11.98242188 C2.09111328 12.82998047 2.09433594 13.67753906 2.09765625 14.55078125 C2.10289307 15.33106689 2.10812988 16.11135254 2.11352539 16.9152832 C2 19 2 19 1 22 C0.34 22 -0.32 22 -1 22 C-0.67 14.74 -0.34 7.48 0 0 Z " fill="#BE1C2D" transform="translate(125,62)"/>
<path d="M0 0 C0.66 0.33 1.32 0.66 2 1 C1.67 1.66 1.34 2.32 1 3 C2.65 3 4.3 3 6 3 C5.60196439 5.88575819 5.20990931 6.82189513 2.9375 8.75 C2.298125 9.1625 1.65875 9.575 1 10 C-1.28773145 8.18887927 -1.95209822 7.39279457 -2.3125 4.4375 C-2 2 -2 2 0 0 Z " fill="#BF2030" transform="translate(23,83)"/>
<path d="M0 0 C0.99 0 1.98 0 3 0 C3 2.64 3 5.28 3 8 C3.66 8.33 4.32 8.66 5 9 C4.67 9.99 4.34 10.98 4 12 C4 11.34 4 10.68 4 10 C2.35 10 0.7 10 -1 10 C-1 9.01 -1 8.02 -1 7 C-1.66 6.67 -2.32 6.34 -3 6 C-3 4.68 -3 3.36 -3 2 C-2.01 2 -1.02 2 0 2 C0 1.34 0 0.68 0 0 Z " fill="#C63845" transform="translate(25,76)"/>
<path d="M0 0 C0.99 0.495 0.99 0.495 2 1 C2 1.66 2 2.32 2 3 C4.97 3.495 4.97 3.495 8 4 C7.01 4.33 6.02 4.66 5 5 C5 6.32 5 7.64 5 9 C5.66 9.33 6.32 9.66 7 10 C5.68 11.65 4.36 13.3 3 15 C2.49564306 13.0636296 1.99666126 11.12585854 1.5 9.1875 C1.2215625 8.10855469 0.943125 7.02960938 0.65625 5.91796875 C0 3 0 3 0 0 Z " fill="#F9EADF" transform="translate(17,73)"/>
<path d="M0 0 C2.97 0 5.94 0 9 0 C9 0.66 9 1.32 9 2 C8.01 2 7.02 2 6 2 C5.67 3.32 5.34 4.64 5 6 C4.34 5.01 3.68 4.02 3 3 C0.60236815 5.39763185 0.65719414 6.33273498 0.375 9.625 C0.30023438 10.44226562 0.22546875 11.25953125 0.1484375 12.1015625 C0.09945312 12.72804688 0.05046875 13.35453125 0 14 C-0.66 14 -1.32 14 -2 14 C-2.33 14.99 -2.66 15.98 -3 17 C-3.33 15.02 -3.66 13.04 -4 11 C-3.34 11 -2.68 11 -2 11 C-1.93941406 10.37351562 -1.87882812 9.74703125 -1.81640625 9.1015625 C-1.73261719 8.28429688 -1.64882813 7.46703125 -1.5625 6.625 C-1.48128906 5.81289063 -1.40007813 5.00078125 -1.31640625 4.1640625 C-1 2 -1 2 0 0 Z " fill="#FEC11A" transform="translate(60,38)"/>
<path d="M0 0 C5.01243959 3.84380901 8.1686587 7.3373174 11 13 C10.01 14.485 10.01 14.485 9 16 C8.443125 14.948125 7.88625 13.89625 7.3125 12.8125 C5.78962718 10.10517054 4.53650878 8.54704267 2.25 6.3125 C0 4 0 4 0 0 Z " fill="#FADB15" transform="translate(106,29)"/>
<path d="M0 0 C1.625 2 1.625 2 3 4 C0.33333333 4 -2.33333333 4 -5 4 C-3.35 4.33 -1.7 4.66 0 5 C-0.33 5.99 -0.66 6.98 -1 8 C-1.99 8 -2.98 8 -4 8 C-4.33 8.99 -4.66 9.98 -5 11 C-5 10.01 -5 9.02 -5 8 C-5.66 8 -6.32 8 -7 8 C-7.3125 5.6875 -7.3125 5.6875 -7 3 C-4.6167054 1.18116991 -3.04181663 0 0 0 Z " fill="#C53643" transform="translate(90,105)"/>
<path d="M0 0 C0.66 0 1.32 0 2 0 C2.19401633 1.81181405 2.38004375 3.62448532 2.5625 5.4375 C2.66691406 6.44683594 2.77132812 7.45617188 2.87890625 8.49609375 C2.93884766 9.73552734 2.93884766 9.73552734 3 11 C2 12 2 12 -0.5625 12.0625 C-1.366875 12.041875 -2.17125 12.02125 -3 12 C-2 9 -2 9 -1 8 C-2.32 7.67 -3.64 7.34 -5 7 C-4.01 6.67 -3.02 6.34 -2 6 C-0.77479736 2.99152582 -0.77479736 2.99152582 0 0 Z " fill="#FBB618" transform="translate(63,50)"/>
<path d="M0 0 C1.32 0 2.64 0 4 0 C2.62087597 3.40136289 1.37388141 4.69605565 -1.9375 6.25 C-2.97197266 6.75273438 -2.97197266 6.75273438 -4.02734375 7.265625 C-6 8 -6 8 -9 8 C-9 8.66 -9 9.32 -9 10 C-9.99 10 -10.98 10 -12 10 C-11 7 -11 7 -9.00390625 5.9375 C-8.19824219 5.628125 -7.39257812 5.31875 -6.5625 5 C-3.02469848 3.63712301 -2.19275781 3.28913671 0 0 Z " fill="#B3A010" transform="translate(100,111)"/>
<path d="M0 0 C0.66 0.33 1.32 0.66 2 1 C2.34153937 2.66500443 2.67449498 4.33178677 3 6 C3.66 6.66 4.32 7.32 5 8 C-0.23880078 7.44854729 -4.97350697 6.57077907 -10 5 C-8.68 4.67 -7.36 4.34 -6 4 C-6 3.34 -6 2.68 -6 2 C-4.02 2.66 -2.04 3.32 0 4 C0 2.68 0 1.36 0 0 Z " fill="#FAEBDB" transform="translate(57,112)"/>
<path d="M0 0 C1.5625 1.1875 1.5625 1.1875 3 3 C2.69142862 4.67142831 2.35015049 6.33678518 2 8 C1.73062154 11.09984097 1.58711898 14.2048402 1.4375 17.3125 C1.39431641 18.14845703 1.35113281 18.98441406 1.30664062 19.84570312 C1.20114693 21.89696935 1.10012685 23.9484648 1 26 C0.67 26 0.34 26 0 26 C-0.06058594 25.03578125 -0.12117187 24.0715625 -0.18359375 23.078125 C-0.26738281 21.81484375 -0.35117188 20.5515625 -0.4375 19.25 C-0.51871094 17.99703125 -0.59992187 16.7440625 -0.68359375 15.453125 C-0.88308111 12.18155235 -0.88308111 12.18155235 -1.59375 9.8125 C-2.354899 6.41660444 -0.92953738 3.28072015 0 0 Z " fill="#CA442C" transform="translate(10,51)"/>
<path d="M0 0 C2.82858266 3.36736031 4.4998253 6.87451958 6 11 C5.67 11.99 5.34 12.98 5 14 C4.67 13.34 4.34 12.68 4 12 C1.98330173 10.86649466 1.98330173 10.86649466 0 10 C0.33 9.01 0.66 8.02 1 7 C-0.32 7.33 -1.64 7.66 -3 8 C-2.5359375 7.13375 -2.5359375 7.13375 -2.0625 6.25 C-1.07416636 4.15705816 -0.4831387 2.25464725 0 0 Z " fill="#FCF3E0" transform="translate(110,45)"/>
<path d="M0 0 C1.44096586 0.42594588 2.87768712 0.86626633 4.3125 1.3125 C5.11300781 1.55613281 5.91351563 1.79976562 6.73828125 2.05078125 C9.09964573 3.04182023 10.33879993 4.08074943 12 6 C10.35 6.66 8.7 7.32 7 8 C6.67 7.34 6.34 6.68 6 6 C5.34 6 4.68 6 4 6 C4 6.99 4 7.98 4 9 C3.34 9 2.68 9 2 9 C1.855625 7.88625 1.71125 6.7725 1.5625 5.625 C1.21627965 2.17857953 1.21627965 2.17857953 0 0 Z " fill="#FBF2EA" transform="translate(82,23)"/>
<path d="M0 0 C1.6744239 0.6469365 3.34302621 1.30959426 5 2 C2.45368965 4.97069541 -0.42230149 6.4775751 -4 8 C-4.66 7.67 -5.32 7.34 -6 7 C-5.67 6.01 -5.34 5.02 -5 4 C-4.01 3.67 -3.02 3.34 -2 3 C-1.67 2.34 -1.34 1.68 -1 1 C-2.32 1 -3.64 1 -5 1 C-5.33 1.66 -5.66 2.32 -6 3 C-6 2.01 -6 1.02 -6 0 C-3.43417606 -1.28291197 -2.6963913 -0.84743727 0 0 Z " fill="#F9EAE3" transform="translate(91,109)"/>
<path d="M0 0 C1.49828872 3.88235819 0.43110582 6.43449288 -0.9375 10.25 C-1.31777344 11.32765625 -1.69804688 12.4053125 -2.08984375 13.515625 C-2.39019531 14.33546875 -2.69054687 15.1553125 -3 16 C-3.33 16 -3.66 16 -4 16 C-5.01603857 10.20858017 -4.96263236 6.5415502 -3 1 C-2.67 1.66 -2.34 2.32 -2 3 C-1.34 3 -0.68 3 0 3 C0 2.01 0 1.02 0 0 Z " fill="#D36468" transform="translate(126,81)"/>
<path d="M0 0 C0.78375 0.04125 1.5675 0.0825 2.375 0.125 C3 1.9375 3 1.9375 3.375 4.125 C2.385 5.61 2.385 5.61 1.375 7.125 C-0.275 6.795 -1.925 6.465 -3.625 6.125 C-4.25 4.25 -4.25 4.25 -4.625 2.125 C-2.625 0.125 -2.625 0.125 0 0 Z " fill="#BF1E2C" transform="translate(113.625,74.875)"/>
<path d="M0 0 C2.125 0.375 2.125 0.375 4 1 C3.67 3.64 3.34 6.28 3 9 C1.68 8.67 0.36 8.34 -1 8 C-1.625 5.125 -1.625 5.125 -2 2 C-1.34 1.34 -0.68 0.68 0 0 Z " fill="#BF1F2E" transform="translate(47,107)"/>
<path d="M0 0 C1.98 0.66 3.96 1.32 6 2 C6 3.32 6 4.64 6 6 C7.32 5.01 8.64 4.02 10 3 C9.39676766 6.37810112 8.09807945 8.32255812 6 11 C4.9944239 9.54550599 3.99569565 8.08627557 3 6.625 C2.443125 5.81289062 1.88625 5.00078125 1.3125 4.1640625 C0 2 0 2 0 0 Z " fill="#FAEFE7" transform="translate(22,91)"/>
<path d="M0 0 C1.65 1.65 3.3 3.3 5 5 C4.34 6.32 3.68 7.64 3 9 C3.66 9.66 4.32 10.32 5 11 C3.02 11.66 1.04 12.32 -1 13 C-1.0272415 11.58344207 -1.04650467 10.16672955 -1.0625 8.75 C-1.07410156 7.96109375 -1.08570312 7.1721875 -1.09765625 6.359375 C-1.00385306 4.09308998 -0.63241063 2.1711105 0 0 Z " fill="#FCF4E0" transform="translate(19,55)"/>
<path d="M0 0 C-0.99 1.485 -0.99 1.485 -2 3 C-1.01 3 -0.02 3 1 3 C1 3.99 1 4.98 1 6 C1.99 6.66 2.98 7.32 4 8 C1.69 8 -0.62 8 -3 8 C-3.0825 7.21625 -3.165 6.4325 -3.25 5.625 C-3.72806339 2.85250896 -3.72806339 2.85250896 -6.0625 1.6875 C-6.701875 1.460625 -7.34125 1.23375 -8 1 C-8 0.67 -8 0.34 -8 0 C-4.71303767 -0.79953138 -3.28976808 -1.09658936 0 0 Z " fill="#D97A82" transform="translate(110,49)"/>
<path d="M0 0 C1.23593891 3.70781672 0.5678132 4.67510253 -0.9375 8.1875 C-1.31777344 9.08855469 -1.69804688 9.98960938 -2.08984375 10.91796875 C-2.39019531 11.60503906 -2.69054687 12.29210937 -3 13 C-4.32 11.35 -5.64 9.7 -7 8 C-6.01 7.67 -5.02 7.34 -4 7 C-3.67 5.35 -3.34 3.7 -3 2 C-2.01 2 -1.02 2 0 2 C0 1.34 0 0.68 0 0 Z " fill="#FDF6EA" transform="translate(115,81)"/>
<path d="M0 0 C1.67542976 0.28604898 3.34385343 0.61781233 5 1 C5 2.65 5 4.3 5 6 C2.69 6 0.38 6 -2 6 C-1.125 1.125 -1.125 1.125 0 0 Z " fill="#C12635" transform="translate(30,37)"/>
<path d="M0 0 C0.66 0.33 1.32 0.66 2 1 C1.19175781 1.56847656 0.38351563 2.13695312 -0.44921875 2.72265625 C-6.30426696 6.95326406 -11.24913377 10.70390312 -15 17 C-15.66 16.01 -16.32 15.02 -17 14 C-11.80762601 8.42562575 -6.50296493 3.97403413 0 0 Z " fill="#F4E9EA" transform="translate(34,19)"/>
<path d="M0 0 C0.33 0 0.66 0 1 0 C1 4.29 1 8.58 1 13 C-1.475 12.01 -1.475 12.01 -4 11 C-3.34 10.67 -2.68 10.34 -2 10 C-2 8.68 -2 7.36 -2 6 C-2.66 5.67 -3.32 5.34 -4 5 C-3.01 4.34 -2.02 3.68 -1 3 C-0.67 2.01 -0.34 1.02 0 0 Z " fill="#FBF3EE" transform="translate(116,62)"/>
<path d="M0 0 C0.66 0.99 1.32 1.98 2 3 C1.125 6.1875 1.125 6.1875 0 9 C0.99 9.33 1.98 9.66 3 10 C0.69 10 -1.62 10 -4 10 C-3.43454163 6.04179141 -2.19097652 3.3340947 0 0 Z " fill="#FCF6EA" transform="translate(27,40)"/>
<path d="M0 0 C3.79354018 1.49031936 5.6478536 3.72379609 8 7 C8 7.33 8 7.66 8 8 C6.35 8 4.7 8 3 8 C3 7.01 3 6.02 3 5 C1.68 5.33 0.36 5.66 -1 6 C-0.67 4.02 -0.34 2.04 0 0 Z " fill="#FCF3E5" transform="translate(99,33)"/>
<path d="M0 0 C0.33 0.66 0.66 1.32 1 2 C2.32 2 3.64 2 5 2 C5 1.34 5 0.68 5 0 C5.66 0 6.32 0 7 0 C7.66 1.65 8.32 3.3 9 5 C5.7 5 2.4 5 -1 5 C-0.67 3.35 -0.34 1.7 0 0 Z " fill="#FBF1EB" transform="translate(69,115)"/>
<path d="M0 0 C-0.66 2.64 -1.32 5.28 -2 8 C-3.65 8.33 -5.3 8.66 -7 9 C-4.4 0 -4.4 0 0 0 Z " fill="#BBA812" transform="translate(27,37)"/>
<path d="M0 0 C6.0546875 -0.1953125 6.0546875 -0.1953125 8 0 C8.66 0.66 9.32 1.32 10 2 C9.01 3.32 8.02 4.64 7 6 C6.67 5.34 6.34 4.68 6 4 C5.01 3.67 4.02 3.34 3 3 C2.67 3.99 2.34 4.98 2 6 C1.34 4.02 0.68 2.04 0 0 Z " fill="#FBF2F1" transform="translate(66,21)"/>
<path d="M0 0 C2.97 0.495 2.97 0.495 6 1 C6 1.66 6 2.32 6 3 C2.62902617 4.49821059 0.79557881 5 -3 5 C-4.7511573 6.4166747 -4.7511573 6.4166747 -6 8 C-5.67 6.35 -5.34 4.7 -5 3 C-3.68 3 -2.36 3 -1 3 C-0.67 2.01 -0.34 1.02 0 0 Z " fill="#FE8D26" transform="translate(73,88)"/>
<path d="M0 0 C0.99 0.33 1.98 0.66 3 1 C3 1.66 3 2.32 3 3 C3.99 3.33 4.98 3.66 6 4 C7.64820195 6.60242414 8 7.86248779 8 11 C7.34 11 6.68 11 6 11 C5.896875 10.360625 5.79375 9.72125 5.6875 9.0625 C5.460625 8.381875 5.23375 7.70125 5 7 C4.01 6.67 3.02 6.34 2 6 C0 3 0 3 0 0 Z " fill="#B6A311" transform="translate(106,34)"/>
<path d="M0 0 C0.99 0 1.98 0 3 0 C3.33 3.63 3.66 7.26 4 11 C3.01 11.495 3.01 11.495 2 12 C2 11.01 2 10.02 2 9 C-0.64 9 -3.28 9 -6 9 C-6 8.67 -6 8.34 -6 8 C-4.02 7.67 -2.04 7.34 0 7 C1.00217064 3.41672247 1.00217064 3.41672247 0 0 Z " fill="#D58541" transform="translate(79,69)"/>
<path d="M0 0 C3.3 0.33 6.6 0.66 10 1 C10 1.66 10 2.32 10 3 C9.01 3.33 8.02 3.66 7 4 C7.66 5.32 8.32 6.64 9 8 C7.0625 7.25 7.0625 7.25 5 6 C4.25 3.875 4.25 3.875 4 2 C2.35 2 0.7 2 -1 2 C-0.67 1.34 -0.34 0.68 0 0 Z " fill="#F7AA4B" transform="translate(69,60)"/>
<path d="M0 0 C0.66 0 1.32 0 2 0 C2 0.66 2 1.32 2 2 C4.97 2.495 4.97 2.495 8 3 C8 3.66 8 4.32 8 5 C8.99 5 9.98 5 11 5 C11 5.66 11 6.32 11 7 C12.32 7.33 13.64 7.66 15 8 C12 9 12 9 9.3359375 7.890625 C8.35882813 7.34921875 7.38171875 6.8078125 6.375 6.25 C5.39273438 5.71890625 4.41046875 5.1878125 3.3984375 4.640625 C1 3 1 3 0 0 Z " fill="#F6D815" transform="translate(32,114)"/>
<path d="M0 0 C1.65 0 3.3 0 5 0 C2.68462045 3.72114571 0.71420527 6.61229661 -3 9 C-3 7.35 -3 5.7 -3 4 C-2.34 3.67 -1.68 3.34 -1 3 C-0.67 2.01 -0.34 1.02 0 0 Z " fill="#FCF5EE" transform="translate(103,99)"/>
<path d="M0 0 C0 0.66 0 1.32 0 2 C-4.62 2 -9.24 2 -14 2 C-14.33 1.34 -14.66 0.68 -15 0 C-9.77254141 -1.2063366 -5.23471686 -0.75612577 0 0 Z " fill="#F3C019" transform="translate(74,126)"/>
<path d="M0 0 C0.556875 0.7115625 0.556875 0.7115625 1.125 1.4375 C3.62646962 3.52205802 5.81593418 3.64621491 9 4 C7.3125 6.0625 7.3125 6.0625 5 8 C2.25 7.75 2.25 7.75 0 7 C0 4.69 0 2.38 0 0 Z " fill="#FAD1A2" transform="translate(73,64)"/>
<path d="M0 0 C0.66 0 1.32 0 2 0 C3.1875 2.75 3.1875 2.75 4 6 C2.625 8.375 2.625 8.375 1 10 C0.67 8.02 0.34 6.04 0 4 C-0.66 4 -1.32 4 -2 4 C-2.33 4.66 -2.66 5.32 -3 6 C-3.33 5.01 -3.66 4.02 -4 3 C-3.34 3 -2.68 3 -2 3 C-1.67 2.34 -1.34 1.68 -1 1 C-0.67 0.67 -0.34 0.34 0 0 Z " fill="#E7C715" transform="translate(116,42)"/>
<path d="M0 0 C0.33 0 0.66 0 1 0 C1 1.65 1 3.3 1 5 C-1.31 5.33 -3.62 5.66 -6 6 C-6.33 5.34 -6.66 4.68 -7 4 C-6.67 3.01 -6.34 2.02 -6 1 C-4.35 1.33 -2.7 1.66 -1 2 C-0.67 1.34 -0.34 0.68 0 0 Z " fill="#D6717A" transform="translate(75,23)"/>
<path d="M0 0 C0.66 0 1.32 0 2 0 C2 0.66 2 1.32 2 2 C2.598125 2.28875 3.19625 2.5775 3.8125 2.875 C6 4 6 4 9 6 C8.34 6 7.68 6 7 6 C6.67 6.66 6.34 7.32 6 8 C2.535 6.02 2.535 6.02 -1 4 C-0.67 2.68 -0.34 1.36 0 0 Z " fill="#C5B112" transform="translate(91,21)"/>
<path d="M0 0 C2.02045442 0.60183749 4.02111039 1.27306096 6 2 C6.33 2.66 6.66 3.32 7 4 C6.67 4.66 6.34 5.32 6 6 C4.02 6 2.04 6 0 6 C-1 3 -1 3 0 0 Z " fill="#D87780" transform="translate(68,111)"/>
<path d="M0 0 C0.3403125 0.9590625 0.3403125 0.9590625 0.6875 1.9375 C1.85250896 4.27193661 1.85250896 4.27193661 4.625 4.75 C5.40875 4.8325 6.1925 4.915 7 5 C6.67 6.32 6.34 7.64 6 9 C3.0625 7.8125 3.0625 7.8125 0 6 C-0.9375 3.375 -0.9375 3.375 -1 1 C-0.67 0.67 -0.34 0.34 0 0 Z " fill="#FE8426" transform="translate(78,94)"/>
<path d="M0 0 C1.65 0 3.3 0 5 0 C5.33 0.66 5.66 1.32 6 2 C5.360625 2.226875 4.72125 2.45375 4.0625 2.6875 C1.72806339 3.85250896 1.72806339 3.85250896 1.25 6.625 C1.1675 7.40875 1.085 8.1925 1 9 C0.34 9 -0.32 9 -1 9 C-1.125 2.25 -1.125 2.25 0 0 Z " fill="#CA4753" transform="translate(109,64)"/>
<path d="M0 0 C0.99 0.33 1.98 0.66 3 1 C2.50168276 4.68754757 1.89932357 6.60490662 -1 9 C-4.875 7.25 -4.875 7.25 -6 5 C-4.35 5 -2.7 5 -1 5 C-0.67 3.35 -0.34 1.7 0 0 Z " fill="#C63946" transform="translate(42,32)"/>
<path d="M0 0 C2.31966166 2.84685749 3.91581154 5.4763875 5 9 C4.67 9.99 4.34 10.98 4 12 C3.67 10.35 3.34 8.7 3 7 C2.01 7.33 1.02 7.66 0 8 C-0.66 6.02 -1.32 4.04 -2 2 C-1.34 2 -0.68 2 0 2 C0 1.34 0 0.68 0 0 Z " fill="#D56F77" transform="translate(121,43)"/>
<path d="M0 0 C0.99 0.33 1.98 0.66 3 1 C3 1.66 3 2.32 3 3 C5.31 3.33 7.62 3.66 10 4 C7.35261084 5.4606285 6.10551666 6 3 6 C2.67 5.34 2.34 4.68 2 4 C1.34 4.99 0.68 5.98 0 7 C0 4.69 0 2.38 0 0 Z " fill="#CD505C" transform="translate(49,27)"/>
<path d="M0 0 C0.33 0.99 0.66 1.98 1 3 C-2.3 3.66 -5.6 4.32 -9 5 C-9 4.01 -9 3.02 -9 2 C-3.375 0 -3.375 0 0 0 Z " fill="#B3A010" transform="translate(87,120)"/>
<path d="M0 0 C1.32 1.32 2.64 2.64 4 4 C3.34 5.32 2.68 6.64 2 8 C1.34 8 0.68 8 0 8 C0 6.68 0 5.36 0 4 C-0.99 3.67 -1.98 3.34 -3 3 C-2.01 2.01 -1.02 1.02 0 0 Z " fill="#D7727B" transform="translate(28,89)"/>
<path d="M0 0 C0.99 0.33 1.98 0.66 3 1 C2.67 1.66 2.34 2.32 2 3 C1.64386903 4.66194453 1.30791692 6.328451 1 8 C-0.32 7.34 -1.64 6.68 -3 6 C-1.125 1.125 -1.125 1.125 0 0 Z " fill="#DA7E86" transform="translate(24,58)"/>
<path d="M0 0 C0.33 0 0.66 0 1 0 C1.90413673 3.83724172 2.10576898 7.37502274 2.0625 11.3125 C2.05347656 12.38113281 2.04445313 13.44976562 2.03515625 14.55078125 C2.02355469 15.35902344 2.01195313 16.16726562 2 17 C1.67 17 1.34 17 1 17 C0.96261719 16.33613281 0.92523438 15.67226562 0.88671875 14.98828125 C0.5100897 9.92963621 0.18794705 6.15819181 -3 2 C-2.01 2 -1.02 2 0 2 C0 1.34 0 0.68 0 0 Z " fill="#F1BB19" transform="translate(123,59)"/>
<path d="M0 0 C0.66 0 1.32 0 2 0 C2.33 1.98 2.66 3.96 3 6 C3.66 6 4.32 6 5 6 C5.33 7.98 5.66 9.96 6 12 C5.01 12 4.02 12 3 12 C2.49440092 10.56445975 1.9957251 9.1264798 1.5 7.6875 C1.2215625 6.88699219 0.943125 6.08648437 0.65625 5.26171875 C0 3 0 3 0 0 Z " fill="#A4940F" transform="translate(114,46)"/>
<path d="M0 0 C4 4.5 4 4.5 4 9 C1 8 1 8 -0.6875 4.9375 C-1.120625 3.968125 -1.55375 2.99875 -2 2 C-1.34 2 -0.68 2 0 2 C0 1.34 0 0.68 0 0 Z " fill="#CB4C58" transform="translate(117,36)"/>
<path d="M0 0 C0 2.31 0 4.62 0 7 C-2.31 6.67 -4.62 6.34 -7 6 C-3.61538462 0 -3.61538462 0 0 0 Z " fill="#FFF6DF" transform="translate(68,32)"/>
<path d="M0 0 C8.78723404 -0.29787234 8.78723404 -0.29787234 13 2 C13.33 2.66 13.66 3.32 14 4 C9.13103697 3.40380045 4.67209049 2.43023178 0 1 C0 0.67 0 0.34 0 0 Z " fill="#C42E2D" transform="translate(82,15)"/>
<path d="M0 0 C3.96 0 7.92 0 12 0 C11.34 0.66 10.68 1.32 10 2 C6.875 1.625 6.875 1.625 4 1 C4.33 1.99 4.66 2.98 5 4 C4.01 4 3.02 4 2 4 C1.34 2.68 0.68 1.36 0 0 Z " fill="#CB7E2C" transform="translate(69,81)"/>
<path d="M0 0 C2.64 0 5.28 0 8 0 C8 1.65 8 3.3 8 5 C7.01 5.495 7.01 5.495 6 6 C5.34 5.01 4.68 4.02 4 3 C1.43717258 2.27034634 1.43717258 2.27034634 -1 2 C-0.67 1.34 -0.34 0.68 0 0 Z " fill="#C9414E" transform="translate(70,111)"/>
<path d="M0 0 C3 1 3 1 4.3125 3.3125 C5 6 5 6 4.125 8.3125 C3.568125 9.1478125 3.568125 9.1478125 3 10 C2.01 10 1.02 10 0 10 C0.185625 8.906875 0.37125 7.81375 0.5625 6.6875 C1.2578068 3.06375867 1.2578068 3.06375867 0 0 Z " fill="#C53542" transform="translate(30,90)"/>
<path d="M0 0 C0.33 0.66 0.66 1.32 1 2 C-0.8125 3.0625 -0.8125 3.0625 -3 4 C-3.99 3.67 -4.98 3.34 -6 3 C-5.67 2.34 -5.34 1.68 -5 1 C-5.66 0.67 -6.32 0.34 -7 0 C-3.88407501 -1.03864166 -2.9737344 -1.09036928 0 0 Z " fill="#C64845" transform="translate(90,125)"/>
<path d="M0 0 C1.65 0.33 3.3 0.66 5 1 C4.67 1.99 4.34 2.98 4 4 C2.02 4.33 0.04 4.66 -2 5 C-1.34 3.35 -0.68 1.7 0 0 Z " fill="#CDB113" transform="translate(57,122)"/>
<path d="M0 0 C2.625 -0.1875 2.625 -0.1875 5 0 C5 0.66 5 1.32 5 2 C3.7934375 2.4021875 3.7934375 2.4021875 2.5625 2.8125 C1.716875 3.204375 0.87125 3.59625 0 4 C-0.33 4.99 -0.66 5.98 -1 7 C-1.99 7 -2.98 7 -4 7 C-2.79618552 4.50638429 -1.54571278 2.31856917 0 0 Z " fill="#FFD8B3" transform="translate(70,92)"/>
<path d="M0 0 C0.99 0.33 1.98 0.66 3 1 C4.89212737 1.22179785 6.78884472 1.40614015 8.6875 1.5625 C9.68136719 1.64628906 10.67523438 1.73007813 11.69921875 1.81640625 C12.83810547 1.90728516 12.83810547 1.90728516 14 2 C14 2.33 14 2.66 14 3 C12.39602723 3.16852247 10.7918131 3.33474886 9.1875 3.5 C8.29417969 3.5928125 7.40085937 3.685625 6.48046875 3.78125 C4 4 4 4 1 4 C0.67 2.68 0.34 1.36 0 0 Z " fill="#BEAE9E" transform="translate(84,79)"/>
<path d="M0 0 C0.33 0 0.66 0 1 0 C1 3.96 1 7.92 1 12 C0.34 12 -0.32 12 -1 12 C-1.33 12.99 -1.66 13.98 -2 15 C-2.33 13.02 -2.66 11.04 -3 9 C-2.34 9 -1.68 9 -1 9 C-0.67 6.03 -0.34 3.06 0 0 Z " fill="#FED867" transform="translate(59,40)"/>
<path d="M0 0 C1.65 0 3.3 0 5 0 C5 0.99 5 1.98 5 3 C5.66 3.33 6.32 3.66 7 4 C4.625 4.625 4.625 4.625 2 5 C1.34 4.34 0.68 3.68 0 3 C0 2.01 0 1.02 0 0 Z " fill="#DE8B93" transform="translate(97,38)"/>
<path d="M0 0 C0.66 0.99 1.32 1.98 2 3 C0.37419034 2.88601335 -1.25067157 2.75844341 -2.875 2.625 C-3.77992187 2.55539063 -4.68484375 2.48578125 -5.6171875 2.4140625 C-8 2 -8 2 -10 0 C-6.33461636 -0.94252722 -3.63170285 -1.17784957 0 0 Z " fill="#F4D745" transform="translate(84,21)"/>
<path d="M0 0 C1.32 0.33 2.64 0.66 4 1 C3.25 2.9375 3.25 2.9375 2 5 C-0.125 5.75 -0.125 5.75 -2 6 C-1.49396008 3.83125748 -1.00016187 2.00032373 0 0 Z " fill="#F4D51D" transform="translate(96,110)"/>
<path d="M0 0 C2.31 0 4.62 0 7 0 C6.67 0.99 6.34 1.98 6 3 C5.01 3 4.02 3 3 3 C2.67 3.99 2.34 4.98 2 6 C2 5.01 2 4.02 2 3 C1.34 3 0.68 3 0 3 C0 2.01 0 1.02 0 0 Z " fill="#D46973" transform="translate(83,110)"/>
<path d="M0 0 C1.32 0.66 2.64 1.32 4 2 C4 3.32 4 4.64 4 6 C2.68 6.33 1.36 6.66 0 7 C-1.125 2.25 -1.125 2.25 0 0 Z " fill="#FEDEC5" transform="translate(85,94)"/>
<path d="M0 0 C2.4375 0.8125 2.4375 0.8125 5 2 C5.33 2.99 5.66 3.98 6 5 C4.125 5.625 4.125 5.625 2 6 C1.34 5.34 0.68 4.68 0 4 C0 2.68 0 1.36 0 0 Z " fill="#D0B513" transform="translate(46,119)"/>
<path d="M0 0 C0.33 0 0.66 0 1 0 C1 2.64 1 5.28 1 8 C0.01 8 -0.98 8 -2 8 C-2.33 7.01 -2.66 6.02 -3 5 C-1.625 2.3125 -1.625 2.3125 0 0 Z " fill="#FBF4EE" transform="translate(83,78)"/>
<path d="M0 0 C0.763125 0.20625 1.52625 0.4125 2.3125 0.625 C-0.07323379 2.51713369 -1.75925348 3.64891783 -4.6875 4.625 C-5.0175 3.635 -5.3475 2.645 -5.6875 1.625 C-2.6875 -0.375 -2.6875 -0.375 0 0 Z " fill="#B9A611" transform="translate(44.6875,21.375)"/>
<path d="M0 0 C0.99 0 1.98 0 3 0 C3 1.65 3 3.3 3 5 C1.68 4.67 0.36 4.34 -1 4 C-1 1 -1 1 0 0 Z " fill="#DC858D" transform="translate(54,111)"/>
<path d="M0 0 C0 0.66 0 1.32 0 2 C0.99 2.33 1.98 2.66 3 3 C2.34 3.66 1.68 4.32 1 5 C-0.34262065 4.70630173 -1.67696283 4.3721042 -3 4 C-3.99 4.495 -3.99 4.495 -5 5 C-5 4.01 -5 3.02 -5 2 C-2 0 -2 0 0 0 Z " fill="#CA4551" transform="translate(42,101)"/>
<path d="M0 0 C0.99 0.33 1.98 0.66 3 1 C3 2.32 3 3.64 3 5 C1.68 5.33 0.36 5.66 -1 6 C-1.042721 4.33388095 -1.04063832 2.66617115 -1 1 C-0.67 0.67 -0.34 0.34 0 0 Z " fill="#DD8890" transform="translate(111,67)"/>
<path d="M0 0 C0.99 0 1.98 0 3 0 C2.6875 2.875 2.6875 2.875 2 6 C1.01 6.66 0.02 7.32 -1 8 C-0.67 5.36 -0.34 2.72 0 0 Z " fill="#B5A30E" transform="translate(18,47)"/>
<path d="M0 0 C0.99 0.66 1.98 1.32 3 2 C2.34 3.32 1.68 4.64 1 6 C0.01 5.67 -0.98 5.34 -2 5 C-1.125 1.125 -1.125 1.125 0 0 Z " fill="#DB8088" transform="translate(29,44)"/>
<path d="M0 0 C2.0625 0.4375 2.0625 0.4375 4 1 C3.2575 1.6496875 3.2575 1.6496875 2.5 2.3125 C0.66781808 3.99740483 0.66781808 3.99740483 1 7 C0.01 6.67 -0.98 6.34 -2 6 C-1.125 1.125 -1.125 1.125 0 0 Z " fill="#C22B39" transform="translate(106,82)"/>
<path d="M0 0 C0 1.65 0 3.3 0 5 C-0.99 5.495 -0.99 5.495 -2 6 C-2.66 5.67 -3.32 5.34 -4 5 C-4 3.68 -4 2.36 -4 1 C-1 0 -1 0 0 0 Z " fill="#DA7F87" transform="translate(26,77)"/>
<path d="M0 0 C0.99 0 1.98 0 3 0 C2 3 2 3 1 5 C1.66 5.33 2.32 5.66 3 6 C1.35 6 -0.3 6 -2 6 C-2 5.34 -2 4.68 -2 4 C-1.34 4 -0.68 4 0 4 C-0.33 3.01 -0.66 2.02 -1 1 C-0.67 0.67 -0.34 0.34 0 0 Z " fill="#FFE5C9" transform="translate(78,71)"/>
<path d="M0 0 C0.99 0.33 1.98 0.66 3 1 C3.33 1.99 3.66 2.98 4 4 C2.35 4.33 0.7 4.66 -1 5 C-0.67 3.35 -0.34 1.7 0 0 Z " fill="#D8767F" transform="translate(86,28)"/>
<path d="M0 0 C0.33 1.32 0.66 2.64 1 4 C-0.65 4.66 -2.3 5.32 -4 6 C-4 5.01 -4 4.02 -4 3 C-2 1.3125 -2 1.3125 0 0 Z " fill="#BE1F2E" transform="translate(33,21)"/>
<path d="M0 0 C0.66 0 1.32 0 2 0 C6 4.47058824 6 4.47058824 6 7 C3.00675737 5.9024777 2.15389099 5.32317108 0.75 2.375 C0.5025 1.59125 0.255 0.8075 0 0 Z " fill="#B8ABAC" transform="translate(16,104)"/>
<path d="M0 0 C0.99 0.33 1.98 0.66 3 1 C2.54625 1.433125 2.0925 1.86625 1.625 2.3125 C-0.20024334 4.10798342 -0.20024334 4.10798342 -2 7 C-2.6875 5.1875 -2.6875 5.1875 -3 3 C-1.5625 1.25 -1.5625 1.25 0 0 Z " fill="#C32C3A" transform="translate(99,95)"/>
<path d="M0 0 C1.125 1.75 1.125 1.75 2 4 C1.125 6.25 1.125 6.25 0 8 C-0.66 7.01 -1.32 6.02 -2 5 C-1.125 2.3125 -1.125 2.3125 0 0 Z " fill="#C43230" transform="translate(12,85)"/>
<path d="M0 0 C0.33 0.66 0.66 1.32 1 2 C3.01669827 3.13350534 3.01669827 3.13350534 5 4 C3.02 4.66 1.04 5.32 -1 6 C-1.042721 4.33388095 -1.04063832 2.66617115 -1 1 C-0.67 0.67 -0.34 0.34 0 0 Z " fill="#FCF6F7" transform="translate(19,62)"/>
<path d="M0 0 C0.99 0 1.98 0 3 0 C2.38722388 2.96175123 1.74627478 4.38058783 0 7 C-0.66 5.68 -1.32 4.36 -2 3 C-1.34 2.01 -0.68 1.02 0 0 Z " fill="#F0D246" transform="translate(41,24)"/>
</svg>
