<?xml version="1.0" encoding="UTF-8"?>
<svg version="1.1" xmlns="http://www.w3.org/2000/svg" width="300" height="300">
<path d="M0 0 C0.92783798 -0.00630432 1.85567596 -0.01260864 2.81163025 -0.019104 C3.8116658 -0.01505554 4.81170135 -0.01100708 5.84204102 -0.00683594 C6.87152359 -0.00874939 7.90100616 -0.01066284 8.96168518 -0.01263428 C11.13966109 -0.01399573 13.31764513 -0.01030211 15.49560547 -0.00195312 C18.82936866 0.00873591 22.16259162 -0.00184433 25.49633789 -0.01464844 C27.61157346 -0.01332662 29.72680868 -0.01076377 31.84204102 -0.00683594 C33.339058 -0.01290863 33.339058 -0.01290863 34.86631775 -0.019104 C36.26280296 -0.00964752 36.26280296 -0.00964752 37.6875 0 C38.50451889 0.00159119 39.32153778 0.00318237 40.16331482 0.00482178 C42.67127746 0.28852017 44.27657241 0.9213312 46.40844727 2.25878906 C48.16222082 5.76633618 48.11037629 9.44205 47.40844727 13.25878906 C45.99119253 15.29206646 44.42372633 16.9306457 42.67797852 18.68457031 C41.0865021 20.30347946 41.0865021 20.30347946 41.53344727 23.19628906 C41.96657227 24.21722656 41.96657227 24.21722656 42.40844727 25.25878906 C43.06844727 25.25878906 43.72844727 25.25878906 44.40844727 25.25878906 C46.51325872 27.12073765 47.32344519 28.63916867 47.70532227 31.42285156 C47.90713994 37.61865431 47.90713994 37.61865431 46.07250977 39.97363281 C42.12310111 43.02376297 37.5335051 42.38637667 32.80297852 42.35644531 C31.96377365 42.35503036 31.12456879 42.35361542 30.25993347 42.35215759 C27.58023511 42.34656122 24.90062037 42.33400941 22.22094727 42.32128906 C20.40389118 42.31627359 18.58683379 42.31171077 16.76977539 42.30761719 C12.31594123 42.29744397 7.86228783 42.27786787 3.40844727 42.25878906 C3.40844727 49.18878906 3.40844727 56.11878906 3.40844727 63.25878906 C5.70362305 63.18917969 5.70362305 63.18917969 8.04516602 63.11816406 C10.06207356 63.0806402 12.07900224 63.0442407 14.09594727 63.00878906 C15.60705078 62.95851563 15.60705078 62.95851563 17.14868164 62.90722656 C24.65882217 62.80808279 24.65882217 62.80808279 28.55297852 65.14941406 C31.80450767 68.84588931 31.532186 71.2720315 31.52870178 76.14297485 C31.52998342 77.21747062 31.52998342 77.21747062 31.53129095 78.31367338 C31.53294459 80.72590495 31.52742627 83.13806775 31.52197266 85.55029297 C31.52169073 87.27470396 31.52184862 88.99911508 31.52241516 90.723526 C31.52270294 95.41541714 31.5168094 100.10728289 31.5098412 104.79916811 C31.50360438 109.69857944 31.50300361 114.59799131 31.5018158 119.49740601 C31.49870346 128.77987006 31.49049137 138.06232239 31.48046631 147.34478128 C31.46930216 157.91052589 31.46379396 168.47627105 31.45877087 179.04202008 C31.44830868 200.78094963 31.43071111 222.51986861 31.40844727 244.25878906 C32.36541504 244.23921143 33.32238281 244.21963379 34.30834961 244.19946289 C36.19481201 244.17662231 36.19481201 244.17662231 38.11938477 244.15332031 C39.36510254 244.13374268 40.61082031 244.11416504 41.89428711 244.09399414 C47.83339181 244.37250572 51.43192669 246.30004296 55.58032227 250.41113281 C57.87860122 253.99114425 58.09831901 257.00025787 58.03344727 261.13378906 C58.02579346 261.84615723 58.01813965 262.55852539 58.01025391 263.29248047 C57.79546312 268.35316101 56.95053794 271.5006809 53.40454102 275.09472656 C47.07431804 278.78632431 40.32608602 278.54530778 33.21839905 278.51948547 C32.09916925 278.52331102 30.97993946 278.52713657 29.82679361 278.53107804 C26.08060745 278.54138767 22.33457513 278.5374197 18.58837891 278.53344727 C15.90084832 278.53779484 13.21332896 278.54291376 10.52580261 278.54893494 C3.98615672 278.56167114 -2.55344809 278.563477 -9.0931043 278.56113467 C-14.40942589 278.55935026 -19.72573503 278.56110379 -25.04205513 278.56535912 C-26.17784128 278.5662519 -26.17784128 278.5662519 -27.33657261 278.56716272 C-28.87489402 278.56837449 -30.41321543 278.56958863 -31.95153684 278.5708051 C-46.37115441 278.58167633 -60.79074857 278.57952002 -75.21036745 278.57342025 C-88.39626136 278.56825062 -101.58208141 278.57950847 -114.76796072 278.59851847 C-128.31481661 278.61789884 -141.86163756 278.62615257 -155.40850741 278.62239522 C-163.01102509 278.62048358 -170.61347989 278.62296713 -178.21598625 278.63710976 C-184.68757653 278.64902702 -191.15906521 278.65042455 -197.63065689 278.63831959 C-200.93093236 278.63243346 -204.23098382 278.63295363 -207.53125381 278.64332199 C-211.11251527 278.65376193 -214.69327744 278.64571023 -218.27452087 278.63301086 C-219.83158427 278.64407229 -219.83158427 278.64407229 -221.42010349 278.65535718 C-228.91723157 278.59943077 -234.79819291 277.7941869 -240.55249023 272.57128906 C-242.94317878 268.68756514 -243.34155508 265.69220553 -243.21655273 261.25878906 C-243.23588867 260.57300781 -243.25522461 259.88722656 -243.27514648 259.18066406 C-243.22048664 253.452312 -241.49069837 251.11761857 -237.59155273 247.25878906 C-232.75176291 244.16956151 -229.06287716 244.12880421 -223.33764648 244.18847656 C-221.44357056 244.20370361 -221.44357056 244.20370361 -219.51123047 244.21923828 C-218.54773682 244.23229004 -217.58424316 244.2453418 -216.59155273 244.25878906 C-216.60726318 243.42105957 -216.62297363 242.58333008 -216.63916016 241.72021484 C-216.6902528 238.61542029 -216.72788507 235.51083975 -216.75634766 232.40576172 C-216.77887524 230.39959532 -216.81698844 228.3936238 -216.85522461 226.38769531 C-216.86489258 225.13085938 -216.87456055 223.87402344 -216.88452148 222.57910156 C-216.90023193 221.41652832 -216.91594238 220.25395508 -216.93212891 219.05615234 C-216.81973877 218.13302246 -216.70734863 217.20989258 -216.59155273 216.25878906 C-213.36781596 214.10963121 -212.324516 213.87592104 -208.59155273 214.25878906 C-206.59155273 216.25878906 -206.59155273 216.25878906 -206.36450195 219.05615234 C-206.37497559 220.21872559 -206.38544922 221.38129883 -206.39624023 222.57910156 C-206.40123535 223.71105957 -206.40623047 224.84301758 -206.41137695 226.00927734 C-206.42958496 227.45286621 -206.44779297 228.89645508 -206.46655273 230.38378906 C-206.50780273 234.96253906 -206.54905273 239.54128906 -206.59155273 244.25878906 C-191.41155273 244.25878906 -176.23155273 244.25878906 -160.59155273 244.25878906 C-160.92155273 226.43878906 -161.25155273 208.61878906 -161.59155273 190.25878906 C-176.44155273 190.25878906 -191.29155273 190.25878906 -206.59155273 190.25878906 C-206.59155273 194.54878906 -206.59155273 198.83878906 -206.59155273 203.25878906 C-207.25155273 203.91878906 -207.91155273 204.57878906 -208.59155273 205.25878906 C-215.16847581 204.68186599 -215.16847581 204.68186599 -216.59155273 203.25878906 C-216.74573842 200.32926101 -216.82329226 197.43959481 -216.84155273 194.50878906 C-216.86217773 193.69667969 -216.88280273 192.88457031 -216.90405273 192.04785156 C-216.93468082 187.3464408 -216.83556741 183.95414491 -213.59155273 180.25878906 C-210.09717349 178.56172411 -207.28691603 178.00699047 -203.42163086 178 C-202.41708862 177.99369568 -201.41254639 177.98739136 -200.37756348 177.980896 C-198.76645691 177.98696869 -198.76645691 177.98696869 -197.12280273 177.99316406 C-195.45320496 177.99029388 -195.45320496 177.99029388 -193.74987793 177.98736572 C-191.39973728 177.9860065 -189.04958906 177.98968458 -186.69946289 177.99804688 C-183.10472733 178.00874984 -179.51049152 177.99814241 -175.91577148 177.98535156 C-173.63061413 177.9866732 -171.34545709 177.98923569 -169.06030273 177.99316406 C-167.98623169 177.9891156 -166.91216064 177.98506714 -165.80554199 177.980896 C-164.80099976 177.98720032 -163.79645752 177.99350464 -162.76147461 178 C-161.44173645 178.00238678 -161.44173645 178.00238678 -160.09533691 178.00482178 C-157.17248051 178.30129697 -155.17469855 178.84251992 -152.59155273 180.25878906 C-149.69837051 183.89465717 -149.2215591 186.66311404 -149.25097656 191.24243164 C-149.25120316 192.42327835 -149.25142975 193.60412506 -149.25166321 194.820755 C-149.26714706 196.08550156 -149.28263092 197.35024811 -149.29858398 198.65332031 C-149.30282883 199.95581223 -149.30707367 201.25830414 -149.31144714 202.6002655 C-149.32286261 206.05111173 -149.35230057 209.50157489 -149.38555908 212.95227051 C-149.41633166 216.47821878 -149.42996777 220.00422938 -149.44506836 223.53027344 C-149.47717413 230.4399512 -149.5299146 237.34931226 -149.59155273 244.25878906 C-142.00155273 244.25878906 -134.41155273 244.25878906 -126.59155273 244.25878906 C-126.60726318 240.89216064 -126.62297363 237.52553223 -126.63916016 234.05688477 C-126.68884108 222.94091531 -126.72199579 211.82494098 -126.74698925 200.70888996 C-126.76245268 193.96838532 -126.78353205 187.22798592 -126.81787109 180.48754883 C-126.85098636 173.98422324 -126.86839997 167.48096598 -126.87618446 160.97756004 C-126.88173298 158.49481674 -126.89256768 156.01207951 -126.9087429 153.52938271 C-126.93047933 150.05534491 -126.93352118 146.58176073 -126.93212891 143.10766602 C-126.94291473 142.07835968 -126.95370056 141.04905334 -126.96481323 139.98855591 C-126.92699731 131.28410544 -126.92699731 131.28410544 -123.59155273 127.25878906 C-118.94294022 123.05665021 -113.10455203 123.80894331 -107.19311523 123.82519531 C-106.0847934 123.81995346 -104.97647156 123.81471161 -103.83456421 123.80931091 C-101.49282671 123.80289483 -99.15105696 123.80422232 -96.80932617 123.81274414 C-93.23614724 123.82124246 -89.66457335 123.79250347 -86.09155273 123.76074219 C-83.81290738 123.75912971 -81.5342592 123.7597086 -79.25561523 123.76269531 C-78.19186676 123.75146133 -77.12811829 123.74022736 -76.03213501 123.72865295 C-69.69767485 123.78781642 -65.6799525 124.3599132 -60.59155273 128.25878906 C-58.70991839 131.23281559 -58.34322207 133.50331078 -58.3510437 136.99176025 C-58.34691971 138.41358612 -58.34691971 138.41358612 -58.3427124 139.86413574 C-58.35349823 141.41348816 -58.35349823 141.41348816 -58.36450195 142.99414062 C-58.3642099 144.08712463 -58.36391785 145.18010864 -58.36361694 146.30621338 C-58.36501083 149.92069422 -58.38057507 153.53496921 -58.39624023 157.14941406 C-58.39997015 159.65476367 -58.40281722 162.16011473 -58.40481567 164.66546631 C-58.41167301 170.58691619 -58.42743771 176.50829996 -58.44751465 182.42971587 C-58.47207268 189.83366461 -58.48280667 197.23762252 -58.49389648 204.64160156 C-58.5153496 217.84737563 -58.55053332 231.05306126 -58.59155273 244.25878906 C-51.00155273 244.25878906 -43.41155273 244.25878906 -35.59155273 244.25878906 C-35.60154549 241.57817856 -35.60154549 241.57817856 -35.61174011 238.84341431 C-35.67243873 222.0382169 -35.71765116 205.23304156 -35.74698925 188.42775917 C-35.76247401 179.7870812 -35.78359412 171.14648492 -35.81787109 162.50585938 C-35.84772436 154.97679859 -35.86711602 147.44779696 -35.87381822 139.91867864 C-35.87773743 135.93013335 -35.88698116 131.94175731 -35.9087429 127.95326614 C-35.92904391 124.20225107 -35.93539961 120.45147563 -35.93087578 116.70041084 C-35.93170386 115.32088864 -35.93770761 113.94135876 -35.94916916 112.56188393 C-35.96401155 110.68402468 -35.95873805 108.80603802 -35.95231628 106.9281311 C-35.95508166 105.87544352 -35.95784704 104.82275593 -35.96069622 103.73816872 C-35.83887887 102.91997343 -35.71706152 102.10177814 -35.59155273 101.25878906 C-32.35901477 99.10376375 -31.3400435 98.79022772 -27.59155273 99.25878906 C-25.95785046 100.41884327 -25.95785046 100.41884327 -24.59155273 102.25878906 C-24.22240925 104.84559917 -24.22240925 104.84559917 -24.23078918 108.01042175 C-24.2246032 109.80882256 -24.2246032 109.80882256 -24.21829224 111.64355469 C-24.22907806 112.96057373 -24.23986389 114.27759277 -24.25097656 115.63452148 C-24.25182269 117.03396079 -24.25134798 118.43340143 -24.24964905 119.83283997 C-24.24878709 123.63431029 -24.26644502 127.43549755 -24.28737092 131.236902 C-24.30610448 135.20872681 -24.30788553 139.18055787 -24.31144714 143.15242004 C-24.3207774 150.67473428 -24.34540439 158.19691797 -24.37549561 165.71917468 C-24.40900917 174.28254537 -24.42551796 182.84592224 -24.44058192 191.40934217 C-24.47195316 209.02591356 -24.5269774 226.64230594 -24.59155273 244.25878906 C-9.41155273 244.25878906 5.76844727 244.25878906 21.40844727 244.25878906 C21.30057724 222.24116474 21.18861948 200.2235738 21.06910801 178.20600986 C21.01375339 167.98362451 20.96026778 157.76123566 20.91113281 147.53881836 C20.86831833 138.63233925 20.82204736 129.72588607 20.77156872 120.81944698 C20.74494566 116.10051625 20.72009212 111.38159074 20.69937325 106.66263008 C20.67984079 102.22630246 20.65570739 97.79002429 20.62795639 93.35374069 C20.61856792 91.72064929 20.61089915 90.087547 20.60502815 88.45443916 C20.59679733 86.23455033 20.58252954 84.01478254 20.56666565 81.79493713 C20.5602131 80.54959481 20.55376055 79.30425249 20.54711246 78.02117252 C20.72259036 75.34934312 20.72259036 75.34934312 19.40844727 74.25878906 C18.05749744 74.16609907 16.70177636 74.1413158 15.34765625 74.14526367 C14.48683945 74.1453392 13.62602264 74.14541473 12.73912048 74.14549255 C11.33600365 74.15323448 11.33600365 74.15323448 9.90454102 74.16113281 C8.47501854 74.16325523 8.47501854 74.16325523 7.01661682 74.16542053 C3.95969561 74.17103754 0.9028465 74.18359291 -2.15405273 74.19628906 C-4.22110897 74.20130187 -6.28816635 74.20586516 -8.35522461 74.20996094 C-13.43402861 74.2210125 -18.51277843 74.23828851 -23.59155273 74.25878906 C-23.64053711 75.09023437 -23.68952148 75.92167969 -23.73999023 76.77832031 C-23.85213867 78.40833984 -23.85213867 78.40833984 -23.96655273 80.07128906 C-24.03616211 81.15023437 -24.10577148 82.22917969 -24.17749023 83.34082031 C-24.59155273 86.25878906 -24.59155273 86.25878906 -26.59155273 89.25878906 C-29.33430354 89.72993644 -31.7871417 89.43684691 -34.59155273 89.25878906 C-36.82670765 87.02363415 -35.87092573 82.00788714 -35.90405273 79.00878906 C-35.93305664 78.14898437 -35.96206055 77.28917969 -35.99194336 76.40332031 C-36.03434925 72.16925523 -35.9794316 69.88259424 -33.69702148 66.21191406 C-30.52788658 63.27208576 -28.80823742 63.13685409 -24.58374023 63.16113281 C-23.59760742 63.16435547 -22.61147461 63.16757813 -21.59545898 63.17089844 C-20.56291992 63.17927734 -19.53038086 63.18765625 -18.46655273 63.19628906 C-16.90614258 63.20305664 -16.90614258 63.20305664 -15.31420898 63.20996094 C-12.73993312 63.22176954 -10.16577127 63.23823831 -7.59155273 63.25878906 C-7.60154549 62.11913193 -7.60154549 62.11913193 -7.61174011 60.95645142 C-7.67178905 53.8050478 -7.71749519 46.65376599 -7.74698925 39.50217628 C-7.7626621 35.82523491 -7.78392932 32.14850141 -7.81787109 28.47167969 C-7.8504077 24.92498093 -7.86839354 21.37848242 -7.87618446 17.83164597 C-7.88173831 16.47679872 -7.89258342 15.12196273 -7.9087429 13.76720047 C-7.93043876 11.87339162 -7.93177746 9.97938231 -7.93212891 8.08544922 C-7.94212166 6.46662338 -7.94212166 6.46662338 -7.95231628 4.81509399 C-7.83326431 3.97151337 -7.71421234 3.12793274 -7.59155273 2.25878906 C-4.41633236 0.14197548 -3.63444503 0.00708517 0 0 Z M3.40844727 11.25878906 C3.40844727 17.85878906 3.40844727 24.45878906 3.40844727 31.25878906 C12.97844727 31.25878906 22.54844727 31.25878906 32.40844727 31.25878906 C31.74844727 29.93878906 31.08844727 28.61878906 30.40844727 27.25878906 C29.245015 24.93192453 29.20948738 23.41157493 29.15844727 20.82128906 C29.13266602 20.03882813 29.10688477 19.25636719 29.08032227 18.45019531 C29.48370937 15.75614575 30.43232336 15.0425009 32.40844727 13.25878906 C32.40844727 12.59878906 32.40844727 11.93878906 32.40844727 11.25878906 C22.83844727 11.25878906 13.26844727 11.25878906 3.40844727 11.25878906 Z M-115.59155273 136.25878906 C-115.68702204 137.66290223 -115.71343802 139.07178715 -115.71180725 140.47914124 C-115.71318192 141.38924454 -115.71455658 142.29934784 -115.7159729 143.23703003 C-115.71237762 144.24331451 -115.70878235 145.249599 -115.70507812 146.28637695 C-115.70522415 147.3399086 -115.70537018 148.39344025 -115.70552063 149.47889709 C-115.70482099 152.97976706 -115.69702621 156.48058458 -115.68920898 159.98144531 C-115.68734499 162.4014025 -115.685921 164.82136005 -115.68492126 167.24131775 C-115.68109465 173.62493931 -115.67126315 180.00853828 -115.66021729 186.39215088 C-115.65000624 192.90042821 -115.6454243 199.40870917 -115.64038086 205.91699219 C-115.62964101 218.69760269 -115.61204305 231.47819047 -115.59155273 244.25878906 C-100.41155273 244.25878906 -85.23155273 244.25878906 -69.59155273 244.25878906 C-69.56900453 230.19460905 -69.55063929 216.13044095 -69.53974056 202.06624699 C-69.53451103 195.53642673 -69.52741212 189.00661944 -69.51611328 182.47680664 C-69.50528689 176.18097747 -69.49927643 169.8851608 -69.49667549 163.58932304 C-69.49482079 161.18143962 -69.49119934 158.77355692 -69.48582268 156.36567879 C-69.47861554 153.0058962 -69.47756165 149.64616596 -69.47802734 146.28637695 C-69.47263443 144.77695023 -69.47263443 144.77695023 -69.46713257 143.23703003 C-69.46850723 142.32692673 -69.4698819 141.41682343 -69.47129822 140.47914124 C-69.46991553 139.28588022 -69.46991553 139.28588022 -69.46850491 138.06851292 C-69.3937714 136.23740017 -69.3937714 136.23740017 -70.59155273 135.25878906 C-71.96765155 135.16083595 -73.34869156 135.13080818 -74.72827148 135.12939453 C-75.60588135 135.12624237 -76.48349121 135.12309021 -77.38769531 135.11984253 C-78.34184326 135.12186676 -79.29599121 135.12389099 -80.27905273 135.12597656 C-81.25189209 135.12501984 -82.22473145 135.12406311 -83.22705078 135.12307739 C-85.28833073 135.12239548 -87.34961282 135.12425054 -89.41088867 135.12841797 C-92.57792962 135.13376606 -95.74482873 135.12847334 -98.91186523 135.12207031 C-100.90926138 135.12273109 -102.90665744 135.12401225 -104.90405273 135.12597656 C-105.85820068 135.12395233 -106.81234863 135.1219281 -107.79541016 135.11984253 C-109.11182495 135.12457077 -109.11182495 135.12457077 -110.45483398 135.12939453 C-111.23125244 135.13019012 -112.0076709 135.13098572 -112.80761719 135.13180542 C-114.61588935 135.06475365 -114.61588935 135.06475365 -115.59155273 136.25878906 Z M-231.59155273 257.25878906 C-232.76265723 260.11838966 -232.76265723 260.11838966 -232.59155273 263.25878906 C-231.33142452 265.64381235 -231.33142452 265.64381235 -228.59155273 267.25878906 C-225.0040062 267.86883893 -221.4426662 267.79776171 -217.8112793 267.76672363 C-216.69995762 267.7729636 -215.58863594 267.77920356 -214.44363785 267.78563261 C-210.70627097 267.80163355 -206.96954987 267.78893 -203.23217773 267.77636719 C-200.55828944 267.78178515 -197.88444619 267.78876078 -195.21057129 267.79760742 C-188.69386596 267.81540943 -182.17734473 267.81154526 -175.66063213 267.79995686 C-170.36517003 267.79092938 -165.06975958 267.78969555 -159.77429199 267.79405212 C-159.02109059 267.79466506 -158.26788918 267.79527799 -157.49186349 267.79590949 C-155.96182853 267.79718837 -154.4317936 267.79848523 -152.90175867 267.79979986 C-138.54900832 267.81121058 -124.1963601 267.79808427 -109.8436265 267.77659839 C-97.52387367 267.75872694 -85.20427159 267.76183091 -72.88452148 267.78027344 C-58.58371879 267.8016715 -44.28300565 267.8101119 -29.98218918 267.79782438 C-28.45773063 267.79655016 -26.93327206 267.79529268 -25.40881348 267.79405212 C-24.65871828 267.79343502 -23.90862309 267.79281792 -23.13579774 267.79218212 C-17.84567763 267.78872601 -12.55561425 267.79456315 -7.26550293 267.80397034 C-0.82003695 267.81517991 5.62523415 267.81217241 12.07067776 267.79084736 C15.36036215 267.78032261 18.64965358 267.77838598 21.93934631 267.78944397 C25.50261663 267.80032001 29.06496293 267.78673071 32.62817383 267.76672363 C33.67213192 267.77564652 34.71609001 267.78456941 35.7916832 267.79376268 C41.27894593 267.79653887 41.27894593 267.79653887 46.08221436 265.42235565 C47.68064126 263.23769177 47.68064126 263.23769177 47.40844727 260.13378906 C46.71631172 257.20433088 46.71631172 257.20433088 44.63955402 256.09483171 C42.16893438 255.16903855 40.34453618 255.00815417 37.71073914 255.00710678 C36.76472493 255.00189129 35.81871073 254.99667579 34.84402943 254.99130225 C33.28976513 254.99799442 33.28976513 254.99799442 31.70410156 255.00482178 C30.0493697 255.00014181 30.0493697 255.00014181 28.36120892 254.99536729 C24.65164083 254.98736746 20.94223542 254.99371875 17.23266602 255 C14.57849648 254.99729102 11.92433829 254.99380317 9.27017212 254.98937988 C2.80163782 254.9804791 -3.6668501 254.98241094 -10.13538623 254.98820516 C-15.39174452 254.99271895 -20.64808979 254.99333578 -25.90444946 254.99115753 C-26.65210015 254.99085107 -27.39975083 254.9905446 -28.17005759 254.99022885 C-29.68881854 254.98958941 -31.20757948 254.98894098 -32.72634041 254.98828366 C-46.97319087 254.98257836 -61.2200156 254.9891414 -75.46686184 254.9998844 C-87.69561284 255.00882009 -99.92432586 255.00726811 -112.15307617 254.99804688 C-126.34838454 254.98734778 -140.54367036 254.9831277 -154.7389822 254.9892714 C-156.2522068 254.98990851 -157.7654314 254.99053725 -159.27865601 254.99115753 C-160.02322298 254.99146608 -160.76778995 254.99177463 -161.53491956 254.99209253 C-166.78595 254.99382056 -172.03696616 254.99090206 -177.28799438 254.98619843 C-183.68582904 254.98059359 -190.08361462 254.98209764 -196.48144364 254.99275991 C-199.74672892 254.99802201 -203.01191523 254.99899058 -206.27720261 254.99346161 C-209.81395331 254.98802376 -213.35047129 254.99481905 -216.88720703 255.00482178 C-217.92338323 255.00036033 -218.95955942 254.99589889 -220.0271349 254.99130225 C-221.4461562 254.99912549 -221.4461562 254.99912549 -222.8938446 255.00710678 C-223.71035335 255.00743149 -224.52686209 255.00775619 -225.36811352 255.00809073 C-227.8879736 255.29221126 -229.4751209 255.86614628 -231.59155273 257.25878906 Z " fill="#FFC33D" transform="translate(242.591552734375,10.7412109375)"/>
<path d="M0 0 C1.00095703 0.22558594 2.00191406 0.45117188 3.03320312 0.68359375 C10.43173525 2.37211762 10.43173525 2.37211762 12.6875 3.5 C14.18161137 8.673758 13.24508723 12.75698325 11.9375 17.8125 C11.7513916 18.56217041 11.5652832 19.31184082 11.37353516 20.08422852 C7.74662588 34.44087412 7.74662588 34.44087412 4.6875 37.5 C1.96176192 37.8494536 0.35471573 37.92515607 -1.9921875 36.4296875 C-4.05704011 33.41182599 -3.35941135 30.87393973 -3 27.3125 C-2.88011719 26.04019531 -2.76023438 24.76789062 -2.63671875 23.45703125 C-2.52972656 22.48121094 -2.42273438 21.50539063 -2.3125 20.5 C-3.03953125 20.93570313 -3.7665625 21.37140625 -4.515625 21.8203125 C-10.53096492 25.38324461 -16.59038303 28.69810003 -22.86328125 31.78125 C-35.30766936 37.9823041 -47.4899928 44.65937587 -59.58007812 51.52001953 C-65.68271238 54.97210154 -71.83238435 58.28258151 -78.125 61.375 C-83.28774244 63.92623848 -88.2633969 66.72135697 -93.24145508 69.60888672 C-97.31883745 71.96345528 -101.45649114 74.09641674 -105.6875 76.15625 C-108.95849968 77.83069031 -112.13321684 79.65969807 -115.3125 81.5 C-130.90841932 90.5 -130.90841932 90.5 -135.3125 90.5 C-135.3125 91.16 -135.3125 91.82 -135.3125 92.5 C-136.40949219 93.04269531 -137.50648438 93.58539063 -138.63671875 94.14453125 C-140.09119939 94.8670797 -141.5456235 95.58974196 -143 96.3125 C-143.72123047 96.66892578 -144.44246094 97.02535156 -145.18554688 97.39257812 C-148.25681338 98.92119935 -151.22854913 100.44777677 -154.14453125 102.26171875 C-156.3125 103.5 -156.3125 103.5 -159.3125 103.5 C-159.3125 104.16 -159.3125 104.82 -159.3125 105.5 C-165.3671875 105.6953125 -165.3671875 105.6953125 -167.3125 105.5 C-169.3125 103.5 -169.3125 103.5 -169.625 100.5625 C-169.2687899 97.071641 -168.91321972 96.64791584 -166.3125 94.5 C-164.90374268 93.716742 -163.46126649 92.99278709 -162 92.3125 C-157.74515617 90.25609507 -153.64347073 88.00334783 -149.5625 85.625 C-145.0471791 83.00683185 -140.50169144 80.54972307 -135.8125 78.25 C-128.687743 74.74745989 -121.74217512 70.94828448 -114.78393555 67.12744141 C-108.59482042 63.73322217 -102.37825364 60.39949721 -96.125 57.125 C-84.10005683 50.83981667 -84.10005683 50.83981667 -72.3125 44.125 C-69.3125 42.5 -69.3125 42.5 -66.3125 42.5 C-66.3125 41.84 -66.3125 41.18 -66.3125 40.5 C-65.33152344 40.0153125 -64.35054688 39.530625 -63.33984375 39.03125 C-50.34089697 32.58539726 -37.53908468 25.84549386 -24.94140625 18.64477539 C-12.38203912 11.5 -12.38203912 11.5 -9.3125 11.5 C-9.3125 10.84 -9.3125 10.18 -9.3125 9.5 C-10.01117188 9.37882812 -10.70984375 9.25765625 -11.4296875 9.1328125 C-12.33976563 8.96523438 -13.24984375 8.79765625 -14.1875 8.625 C-15.09242188 8.46257813 -15.99734375 8.30015625 -16.9296875 8.1328125 C-19.3125 7.5 -19.3125 7.5 -21.3125 5.5 C-21.64204432 2.40228335 -21.76584601 0.32668977 -20.25 -2.4375 C-15.11946567 -5.25101883 -5.41285519 -1.24392601 0 0 Z " fill="#FFC33D" transform="translate(188.3125,37.5)"/>
</svg>
